<?xml version="1.0" standalone="no"?>
<!DOCTYPE svg PUBLIC "-//W3C//DTD SVG 1.1//EN"
  "http://www.w3.org/Graphics/SVG/1.1/DTD/svg11.dtd">
<svg width="195.55998992919922mm" height="124.31799316406247mm" viewBox="66.98999786376953 -141.31799316406247 195.55998992919922 124.31799316406247" xmlns="http://www.w3.org/2000/svg" version="1.1">
	<title>svgOutput</title>
	<desc>made with tinkercad</desc>
<path d="M 259.8219909667969 -127.09200286865232 L 259.9703063964844 -126.97599792480466 L 260.2030029296875 -126.79399871826169 L 260.54400634765625 -126.45200347900388 L 260.8420104980469 -126.07199859619138 L 261.0920104980469 -125.65899658203122 L 261.2900085449219 -125.21800231933591 L 261.4339904785156 -124.75700378417966 L 261.52099609375 -124.28199768066403 L 261.54998779296875 -123.80000305175778 L 261.54998779296875 -122.87999725341794 L 261.54998779296875 -118.78399658203122 L 261.54998779296875 -114.68800354003903 L 261.54998779296875 -113.30899810791013 L 261.52301025390625 -112.8450012207031 L 261.4419860839844 -112.38700103759763 L 261.3089904785156 -111.94100189208982 L 261.125 -111.51399993896482 L 260.8919982910156 -111.11100006103513 L 260.614013671875 -110.73799896240232 L 260.2950134277344 -110.40000152587888 L 259.9389953613281 -110.10099792480466 L 259.54998779296875 -109.8450012207031 L 253.7488555908203 -106.4960021972656 L 249.5500030517578 -104.07199859619138 L 249.16099548339844 -103.81600189208982 L 248.80499267578125 -103.5169982910156 L 248.48599243164062 -103.17900085449216 L 248.20799255371094 -102.80500030517575 L 247.9759979248047 -102.40299987792966 L 247.79100036621094 -101.97599792480466 L 247.6580047607422 -101.52999877929685 L 247.57699584960938 -101.07199859619138 L 247.5500030517578 -100.60700225830075 L 247.5500030517578 -98.30400085449216 L 247.5500030517578 -76.0500030517578 L 247.5500030517578 -65.53600311279295 L 247.5500030517578 -49.15200042724608 L 247.5500030517578 -45.19200134277343 L 247.57699584960938 -44.72800064086913 L 247.6580047607422 -44.270000457763665 L 247.79100036621094 -43.82400131225585 L 247.9759979248047 -43.39699935913085 L 248.20799255371094 -42.993999481201165 L 248.48599243164062 -42.62099838256835 L 248.80499267578125 -42.283000946044915 L 249.16099548339844 -41.98400115966796 L 249.5500030517578 -41.72800064086913 L 250.88009643554688 -40.95999908447265 L 259.54998779296875 -35.95399856567382 L 259.9389953613281 -35.69900131225585 L 260.2950134277344 -35.4000015258789 L 260.614013671875 -35.062000274658196 L 260.8919982910156 -34.68799972534179 L 261.125 -34.285999298095696 L 261.3089904785156 -33.85800170898437 L 261.4419860839844 -33.41299819946288 L 261.52301025390625 -32.95500183105468 L 261.5338439941406 -32.76800155639648 L 261.54998779296875 -32.49000167846679 L 261.54998779296875 -24.57600021362304 L 261.54998779296875 -21.999999999999996 L 261.52099609375 -21.517999649047848 L 261.4339904785156 -21.04299926757812 L 261.2900085449219 -20.580999374389645 L 261.0920104980469 -20.14100074768066 L 260.8420104980469 -19.728000640869137 L 260.54400634765625 -19.34700012207031 L 260.2030029296875 -19.006000518798825 L 259.8219909667969 -18.708000183105465 L 259.40899658203125 -18.458000183105465 L 258.9679870605469 -18.260000228881832 L 258.5069885253906 -18.115999221801754 L 258.0480041503906 -18.03193092346191 L 258.0320129394531 -18.028999328613278 L 257.54998779296875 -17.999999999999996 L 253.95199584960938 -17.999999999999996 L 245.75999450683594 -17.999999999999996 L 229.37600708007812 -17.999999999999996 L 196.60800170898438 -17.999999999999996 L 163.83999633789062 -17.999999999999996 L 147.45599365234375 -17.999999999999996 L 143.36000061035156 -17.999999999999996 L 140.8509979248047 -17.999999999999996 L 140.36900329589844 -18.028999328613278 L 139.89300537109375 -18.115999221801754 L 139.4320068359375 -18.260000228881832 L 139.26400756835938 -18.33559989929199 L 138.99200439453125 -18.458000183105465 L 138.5780029296875 -18.708000183105465 L 138.197998046875 -19.006000518798825 L 137.85699462890625 -19.34700012207031 L 137.5590057373047 -19.728000640869137 L 137.3090057373047 -20.14100074768066 L 137.11099243164062 -20.580999374389645 L 136.9669952392578 -21.04299926757812 L 136.8800048828125 -21.517999649047848 L 136.8509979248047 -21.999999999999996 L 136.8509979248047 -32.76800155639648 L 136.8509979248047 -49.15200042724608 L 136.8509979248047 -52.04000091552733 L 136.88299560546875 -52.548000335693345 L 136.97999572753906 -53.048000335693345 L 137.13900756835938 -53.532001495361314 L 137.35899353027344 -53.991001129150376 L 137.63499450683594 -54.418998718261705 L 137.96400451660156 -54.80899810791014 L 138.33900451660156 -55.15299987792967 L 138.7550048828125 -55.44699859619139 L 139.2050018310547 -55.686000823974595 L 139.68099975585938 -55.86500167846678 L 147.45599365234375 -58.24206161499022 L 161.02000427246094 -62.38899993896483 L 161.4969940185547 -62.56900024414061 L 161.94700622558594 -62.806999206542955 L 162.36199951171875 -63.10100173950194 L 162.73800659179688 -63.4459991455078 L 163.0659942626953 -63.83499908447264 L 163.3419952392578 -64.26300048828124 L 163.56199645996094 -64.7220001220703 L 163.7209930419922 -65.20600128173827 L 163.78501892089844 -65.53600311279295 L 163.8179931640625 -65.70600128173827 L 163.83999633789062 -66.04467010498045 L 163.8509979248047 -66.21399688720702 L 163.8509979248047 -98.30400085449216 L 163.8509979248047 -114.68800354003903 L 163.8509979248047 -118.78399658203122 L 163.8509979248047 -122.87999725341794 L 163.8509979248047 -123.80000305175778 L 163.8800048828125 -124.28199768066403 L 163.9669952392578 -124.75700378417966 L 164.11099243164062 -125.21800231933591 L 164.3090057373047 -125.65899658203122 L 164.5590057373047 -126.07199859619138 L 164.85699462890625 -126.45200347900388 L 165.197998046875 -126.79399871826169 L 165.43008422851562 -126.97599792480466 L 165.5780029296875 -127.09200286865232 L 165.99200439453125 -127.34200286865232 L 166.4320068359375 -127.54000091552732 L 166.89300537109375 -127.68399810791013 L 167.3679962158203 -127.7710037231445 L 167.8509979248047 -127.80000305175778 L 172.03199768066406 -127.80000305175778 L 180.2239990234375 -127.80000305175778 L 196.60800170898438 -127.80000305175778 L 229.37600708007812 -127.80000305175778 L 245.75999450683594 -127.80000305175778 L 253.95199584960938 -127.80000305175778 L 257.54998779296875 -127.80000305175778 L 258.0320129394531 -127.7710037231445 L 258.5069885253906 -127.68399810791013 L 258.9679870605469 -127.54000091552732 L 259.40899658203125 -127.34200286865232 L 259.8219909667969 -127.09200286865232 M 152.5709991455078 -68.23899841308592 L 152.1269989013672 -68.05599975585936 L 151.66700744628906 -67.9250030517578 L 151.19400024414062 -67.84500122070311 L 150.71600341796875 -67.81800079345702 L 147.45599365234375 -67.81800079345702 L 131.07200622558594 -67.81800079345702 L 123.29000091552734 -67.81800079345702 L 123.29000091552734 -65.53600311279295 L 123.29000091552734 -57.34400177001952 L 123.29000091552734 -49.15200042724608 L 123.29000091552734 -32.76800155639648 L 123.29000091552734 -22.318000793457028 L 123.26300048828125 -21.836999893188473 L 123.18199920654297 -21.361000061035153 L 123.0479965209961 -20.898000717163082 L 122.87999725341797 -20.490781784057614 L 122.86399841308594 -20.451999664306637 L 122.63099670410156 -20.030000686645504 L 122.35199737548828 -19.63699913024902 L 122.02999877929688 -19.277999877929684 L 121.6709976196289 -18.955999374389645 L 121.2770004272461 -18.677000045776364 L 120.8550033569336 -18.44400024414062 L 120.41000366210938 -18.25900077819824 L 119.9469985961914 -18.12599945068359 L 119.47100067138672 -18.04500007629394 L 118.98999786376953 -18.017999649047848 L 114.68800354003906 -18.017999649047848 L 109.79000091552734 -18.017999649047848 L 109.30799865722656 -18.04500007629394 L 108.83300018310547 -18.12599945068359 L 108.37000274658203 -18.25900077819824 L 107.92400360107422 -18.44400024414062 L 107.50199890136719 -18.677000045776364 L 107.10900115966797 -18.955999374389645 L 106.7490005493164 -19.277999877929684 L 106.49600219726562 -19.56094932556152 L 106.4280014038086 -19.63699913024902 L 106.14900207519531 -20.030000686645504 L 105.91600036621094 -20.451999664306637 L 105.73100280761719 -20.898000717163082 L 105.5979995727539 -21.361000061035153 L 105.51699829101562 -21.836999893188473 L 105.48999786376953 -22.318000793457028 L 105.48999786376953 -28.517999649047844 L 105.11702728271484 -28.962497711181634 L 104.09776306152344 -30.17720985412597 L 102.52813720703125 -32.04782485961913 L 101.92383575439453 -32.76800155639648 L 98.30400085449219 -37.08197021484374 L 74.42831420898438 -65.53600311279295 L 68.99600219726562 -72.01000213623045 L 67.98999786376953 -74.7740020751953 L 67.98999786376953 -81.9199981689453 L 67.98999786376953 -90.11199951171874 L 67.98999786376953 -98.30400085449216 L 67.98999786376953 -99.26000213623044 L 68.01599884033203 -99.98699951171872 L 68.09600067138672 -100.70999908447263 L 68.22699737548828 -101.42500305175778 L 68.41000366210938 -102.12799835205075 L 68.64399719238281 -102.81700134277341 L 68.927001953125 -103.48699951171872 L 69.25800323486328 -104.13400268554685 L 69.63500213623047 -104.75499725341794 L 70.05599975585938 -105.34799957275388 L 77.22293853759766 -114.68800354003903 L 89.79501342773438 -131.0720062255859 L 90.11199951171875 -131.4850921630859 L 92.93803405761719 -135.1679992675781 L 93.88800048828125 -136.40600585937497 L 94.375 -136.99299621582028 L 94.90599822998047 -137.54200744628903 L 95.47699737548828 -138.0480041503906 L 96.08599853515625 -138.5099945068359 L 96.72699737548828 -138.9230041503906 L 97.35559844970703 -139.26400756835935 L 97.39800262451172 -139.28700256347653 L 98.09500122070312 -139.5980072021484 L 98.30400085449219 -139.67269897460935 L 98.81400299072266 -139.85499572753903 L 99.5510025024414 -140.05700683593747 L 100.30000305175781 -140.20199584960935 L 101.05799865722656 -140.28900146484372 L 101.82099914550781 -140.31799316406247 L 106.49600219726562 -140.31799316406247 L 114.68800354003906 -140.31799316406247 L 122.87999725341797 -140.31799316406247 L 126.95800018310547 -140.31799316406247 L 127.72100067138672 -140.28900146484372 L 128.47900390625 -140.20199584960935 L 129.22900390625 -140.05700683593747 L 129.96499633789062 -139.85499572753903 L 130.6840057373047 -139.5980072021484 L 131.07200622558594 -139.42488098144528 L 131.38099670410156 -139.28700256347653 L 131.42340087890625 -139.26400756835935 L 132.052001953125 -138.9230041503906 L 132.69400024414062 -138.5099945068359 L 133.302001953125 -138.0480041503906 L 133.8730010986328 -137.54200744628903 L 134.4040069580078 -136.99299621582028 L 134.89199829101562 -136.40600585937497 L 135.8419189453125 -135.1679992675781 L 138.9848175048828 -131.0720062255859 L 151.55636596679688 -114.68800354003903 L 158.72300720214844 -105.34799957275388 L 159.1439971923828 -104.75499725341794 L 159.52200317382812 -104.13400268554685 L 159.85299682617188 -103.48699951171872 L 160.13600158691406 -102.81700134277341 L 160.36900329589844 -102.12799835205075 L 160.552001953125 -101.42500305175778 L 160.6840057373047 -100.70999908447263 L 160.76300048828125 -99.98699951171872 L 160.78900146484375 -99.26000213623044 L 160.78900146484375 -98.30400085449216 L 160.78900146484375 -90.11199951171874 L 160.78900146484375 -81.9199981689453 L 160.78900146484375 -80.80200195312499 L 160.75900268554688 -80.37799835205077 L 160.6699981689453 -79.96299743652342 L 160.52200317382812 -79.56400299072264 L 160.32000732421875 -79.19000244140624 L 156.83973693847656 -73.72799682617186 L 154.3419952392578 -69.80799865722655 L 154.06300354003906 -69.4189987182617 L 153.74099731445312 -69.06300354003905 L 153.38299560546875 -68.74500274658202 L 152.99099731445312 -68.46900177001952 L 152.5709991455078 -68.23899841308592 M 254.3979949951172 -122.99199676513669 L 254.31932067871094 -122.87999725341794 L 254.22799682617188 -122.74999999999997 L 254.10299682617188 -122.48100280761716 L 254.0260009765625 -122.19499969482419 L 254 -121.90000152587888 L 254.0260009765625 -121.60500335693357 L 254.10299682617188 -121.318000793457 L 254.22799682617188 -121.05000305175778 L 254.38050842285156 -120.83200073242185 L 254.3979949951172 -120.80699920654294 L 254.60699462890625 -120.59700012207028 L 254.85000610351562 -120.42800140380857 L 255.11900329589844 -120.30200195312497 L 255.40499877929688 -120.22599792480466 L 255.6999969482422 -120.19999694824216 L 255.9949951171875 -120.22599792480466 L 256.281005859375 -120.30200195312497 L 256.54998779296875 -120.42800140380857 L 256.7929992675781 -120.59700012207028 L 257.00201416015625 -120.80699920654294 L 257.0195007324219 -120.83200073242185 L 257.1719970703125 -121.05000305175778 L 257.2980041503906 -121.318000793457 L 257.3739929199219 -121.60500335693357 L 257.3999938964844 -121.90000152587888 L 257.3739929199219 -122.19499969482419 L 257.2980041503906 -122.48100280761716 L 257.1719970703125 -122.74999999999997 L 257.0806884765625 -122.87999725341794 L 257.00201416015625 -122.99199676513669 L 256.7929992675781 -123.20200347900388 L 256.54998779296875 -123.37200164794919 L 256.281005859375 -123.49700164794919 L 255.9949951171875 -123.57399749755857 L 255.6999969482422 -123.59999847412107 L 255.40499877929688 -123.57399749755857 L 255.11900329589844 -123.49700164794919 L 254.85000610351562 -123.37200164794919 L 254.60699462890625 -123.20200347900388 L 254.3979949951172 -122.99199676513669 M 197.26400756835938 -94.48100280761717 L 197.07513427734375 -94.20800018310545 L 197.03500366210938 -94.15000152587889 L 196.86300659179688 -93.78600311279295 L 196.75100708007812 -93.40000152587889 L 196.70199584960938 -92.99999999999999 L 196.718994140625 -92.59799957275389 L 196.7989959716797 -92.20400238037108 L 196.81573486328125 -92.16000366210936 L 196.94200134277344 -91.82800292968749 L 197.14300537109375 -91.48000335693358 L 197.39700317382812 -91.16799926757811 L 197.69900512695312 -90.90100097656249 L 198.03900146484375 -90.68599700927733 L 198.40899658203125 -90.52899932861327 L 198.7989959716797 -90.43199920654295 L 199.1999969482422 -90.40000152587889 L 199.6009979248047 -90.43199920654295 L 199.99200439453125 -90.52899932861327 L 200.36199951171875 -90.68599700927733 L 200.70199584960938 -90.90100097656249 L 200.70399475097656 -90.90277099609374 L 201.0030059814453 -91.16799926757811 L 201.25799560546875 -91.48000335693358 L 201.45899963378906 -91.82800292968749 L 201.6020050048828 -92.20400238037108 L 201.6820068359375 -92.59799957275389 L 201.697998046875 -92.99999999999999 L 201.64999389648438 -93.40000152587889 L 201.53799438476562 -93.78600311279295 L 201.36500549316406 -94.15000152587889 L 201.32504272460938 -94.20800018310545 L 201.13699340820312 -94.48100280761717 L 200.85800170898438 -94.77100372314452 L 200.53700256347656 -95.01300048828124 L 200.17999267578125 -95.19999694824217 L 199.7989959716797 -95.32700347900389 L 199.40199279785156 -95.39199829101561 L 198.99899291992188 -95.39199829101561 L 198.6020050048828 -95.32700347900389 L 198.22000122070312 -95.19999694824217 L 197.86399841308594 -95.01300048828124 L 197.54299926757812 -94.77100372314452 L 197.26400756835938 -94.48100280761717 M 229.79800415039062 -55.326999664306626 L 229.4010009765625 -55.39199829101561 L 229.37600708007812 -55.39199829101561 L 228.99899291992188 -55.39199829101561 L 228.6020050048828 -55.326999664306626 L 228.22000122070312 -55.20000076293944 L 227.86399841308594 -55.013000488281236 L 227.54200744628906 -54.77099990844725 L 227.26400756835938 -54.48099899291991 L 227.03500366210938 -54.15000152587889 L 226.86300659179688 -53.78599929809569 L 226.75100708007812 -53.40000152587889 L 226.7323760986328 -53.2480010986328 L 226.70199584960938 -52.999999999999986 L 226.71800231933594 -52.59799957275389 L 226.7989959716797 -52.203998565673814 L 226.94200134277344 -51.82799911499022 L 227.14300537109375 -51.479999542236314 L 227.39700317382812 -51.16799926757811 L 227.697998046875 -50.901000976562486 L 228.03799438476562 -50.686000823974595 L 228.40899658203125 -50.52799987792967 L 228.7989959716797 -50.431999206542955 L 229.1999969482422 -50.40000152587889 L 229.37600708007812 -50.41404342651366 L 229.6009979248047 -50.431999206542955 L 229.99200439453125 -50.52799987792967 L 230.36199951171875 -50.686000823974595 L 230.70199584960938 -50.901000976562486 L 231.0030059814453 -51.16799926757811 L 231.25799560546875 -51.479999542236314 L 231.45899963378906 -51.82799911499022 L 231.6009979248047 -52.203998565673814 L 231.6820068359375 -52.59799957275389 L 231.697998046875 -52.999999999999986 L 231.66824340820312 -53.2480010986328 L 231.64999389648438 -53.40000152587889 L 231.53799438476562 -53.78599929809569 L 231.36500549316406 -54.15000152587889 L 231.13699340820312 -54.48099899291991 L 230.85800170898438 -54.77099990844725 L 230.53599548339844 -55.013000488281236 L 230.17999267578125 -55.20000076293944 L 229.79800415039062 -55.326999664306626 M 254.22799682617188 -24.749999999999993 L 254.1471405029297 -24.57600021362304 L 254.10299682617188 -24.481000900268548 L 254.0260009765625 -24.19499969482421 L 254 -23.89999961853027 L 254.0260009765625 -23.604999542236325 L 254.10299682617188 -23.318000793457028 L 254.22799682617188 -23.049999237060543 L 254.3979949951172 -22.806999206542965 L 254.60699462890625 -22.597999572753903 L 254.70706176757812 -22.527999877929684 L 254.85000610351562 -22.427999496459957 L 255.11900329589844 -22.302000045776364 L 255.40499877929688 -22.225999832153317 L 255.6999969482422 -22.20000076293945 L 255.9949951171875 -22.225999832153317 L 256.281005859375 -22.302000045776364 L 256.54998779296875 -22.427999496459957 L 256.69293212890625 -22.527999877929684 L 256.7929992675781 -22.597999572753903 L 257.00201416015625 -22.806999206542965 L 257.1719970703125 -23.049999237060543 L 257.2980041503906 -23.318000793457028 L 257.3739929199219 -23.604999542236325 L 257.3999938964844 -23.89999961853027 L 257.3739929199219 -24.19499969482421 L 257.2980041503906 -24.481000900268548 L 257.2535095214844 -24.57600021362304 L 257.1719970703125 -24.749999999999993 L 257.00201416015625 -24.99300003051757 L 256.7929992675781 -25.201999664306634 L 256.54998779296875 -25.37199974060058 L 256.281005859375 -25.49699974060058 L 255.9949951171875 -25.57399940490722 L 255.6999969482422 -25.60000038146972 L 255.40499877929688 -25.57399940490722 L 255.11900329589844 -25.49699974060058 L 254.85000610351562 -25.37199974060058 L 254.60699462890625 -25.201999664306634 L 254.3979949951172 -24.99300003051757 L 254.22799682617188 -24.749999999999993 M 131.4552764892578 -135.1679992675781 L 131.36199951171875 -135.36799621582028 L 131.19200134277344 -135.6109924316406 L 131.07200622558594 -135.73042297363278 L 130.98199462890625 -135.82000732421872 L 130.74000549316406 -135.99000549316403 L 130.4709930419922 -136.1159973144531 L 130.18499755859375 -136.1920013427734 L 129.88999938964844 -136.2180023193359 L 129.593994140625 -136.1920013427734 L 129.30799865722656 -136.1159973144531 L 129.0399932861328 -135.99000549316403 L 128.7969970703125 -135.82000732421872 L 128.58700561523438 -135.6109924316406 L 128.41700744628906 -135.36799621582028 L 128.32371520996094 -135.1679992675781 L 128.29200744628906 -135.1000061035156 L 128.21499633789062 -134.81300354003903 L 128.19000244140625 -134.51800537109372 L 128.21499633789062 -134.2230072021484 L 128.29200744628906 -133.9369964599609 L 128.41700744628906 -133.6679992675781 L 128.58700561523438 -133.42500305175778 L 128.7969970703125 -133.21600341796872 L 128.93421936035156 -133.11999511718747 L 129.0399932861328 -133.0460052490234 L 129.30799865722656 -132.9210052490234 L 129.593994140625 -132.84399414062497 L 129.88999938964844 -132.81799316406247 L 130.18499755859375 -132.84399414062497 L 130.4709930419922 -132.9210052490234 L 130.74000549316406 -133.0460052490234 L 130.8453369140625 -133.11999511718747 L 130.98199462890625 -133.21600341796872 L 131.07200622558594 -133.3055725097656 L 131.19200134277344 -133.42500305175778 L 131.36199951171875 -133.6679992675781 L 131.48699951171875 -133.9369964599609 L 131.56399536132812 -134.2230072021484 L 131.58999633789062 -134.51800537109372 L 131.56399536132812 -134.81300354003903 L 131.48699951171875 -135.1000061035156 L 131.4552764892578 -135.1679992675781 M 168.8979949951172 -122.99199676513669 L 168.81932067871094 -122.87999725341794 L 168.72799682617188 -122.74999999999997 L 168.60299682617188 -122.48100280761716 L 168.5260009765625 -122.19499969482419 L 168.50100708007812 -121.90000152587888 L 168.5260009765625 -121.60500335693357 L 168.60299682617188 -121.318000793457 L 168.72799682617188 -121.05000305175778 L 168.88050842285156 -120.83200073242185 L 168.8979949951172 -120.80699920654294 L 169.10800170898438 -120.59700012207028 L 169.3509979248047 -120.42800140380857 L 169.61900329589844 -120.30200195312497 L 169.90499877929688 -120.22599792480466 L 170.2010040283203 -120.19999694824216 L 170.49600219726562 -120.22599792480466 L 170.78199768066406 -120.30200195312497 L 171.05099487304688 -120.42800140380857 L 171.29299926757812 -120.59700012207028 L 171.5030059814453 -120.80699920654294 L 171.52049255371094 -120.83200073242185 L 171.67300415039062 -121.05000305175778 L 171.79800415039062 -121.318000793457 L 171.875 -121.60500335693357 L 171.9010009765625 -121.90000152587888 L 171.875 -122.19499969482419 L 171.79800415039062 -122.48100280761716 L 171.67300415039062 -122.74999999999997 L 171.58168029785156 -122.87999725341794 L 171.5030059814453 -122.99199676513669 L 171.29299926757812 -123.20200347900388 L 171.05099487304688 -123.37200164794919 L 170.78199768066406 -123.49700164794919 L 170.49600219726562 -123.57399749755857 L 170.2010040283203 -123.59999847412107 L 169.90499877929688 -123.57399749755857 L 169.61900329589844 -123.49700164794919 L 169.3509979248047 -123.37200164794919 L 169.10800170898438 -123.20200347900388 L 168.8979949951172 -122.99199676513669 M 131.56399536132812 -103.22299957275388 L 131.58999633789062 -103.51799774169919 L 131.56399536132812 -103.81300354003903 L 131.48699951171875 -104.09999847412107 L 131.36199951171875 -104.36799621582028 L 131.19200134277344 -104.61100006103513 L 131.07200622558594 -104.73043060302732 L 130.98199462890625 -104.81999969482419 L 130.74000549316406 -104.9899978637695 L 130.4709930419922 -105.1159973144531 L 130.18499755859375 -105.19200134277341 L 129.88999938964844 -105.21800231933591 L 129.593994140625 -105.19200134277341 L 129.30799865722656 -105.1159973144531 L 129.0399932861328 -104.9899978637695 L 128.7969970703125 -104.81999969482419 L 128.58700561523438 -104.61100006103513 L 128.47296142578125 -104.44799804687497 L 128.41700744628906 -104.36799621582028 L 128.29200744628906 -104.09999847412107 L 128.21499633789062 -103.81300354003903 L 128.19000244140625 -103.51799774169919 L 128.21499633789062 -103.22299957275388 L 128.29200744628906 -102.93699645996091 L 128.41700744628906 -102.6679992675781 L 128.58700561523438 -102.42500305175778 L 128.61212158203125 -102.40000152587888 L 128.7969970703125 -102.21600341796872 L 129.0399932861328 -102.04599761962888 L 129.30799865722656 -101.92099761962888 L 129.593994140625 -101.8440017700195 L 129.88999938964844 -101.818000793457 L 130.18499755859375 -101.8440017700195 L 130.4709930419922 -101.92099761962888 L 130.74000549316406 -102.04599761962888 L 130.98199462890625 -102.21600341796872 L 131.07200622558594 -102.3055725097656 L 131.19200134277344 -102.42500305175778 L 131.36199951171875 -102.6679992675781 L 131.48699951171875 -102.93699645996091 L 131.56399536132812 -103.22299957275388 M 147.73500061035156 -95.30200195312499 L 147.45599365234375 -95.18961334228514 L 147.3800048828125 -95.15899658203124 L 147.05099487304688 -94.96299743652342 L 146.75599670410156 -94.71900177001952 L 146.50100708007812 -94.43399810791014 L 146.29299926757812 -94.11199951171874 L 146.13699340820312 -93.76300048828124 L 146.03500366210938 -93.3939971923828 L 145.99099731445312 -93.01399993896483 L 146.00599670410156 -92.63099670410155 L 146.07899475097656 -92.25599670410155 L 146.20799255371094 -91.89499664306639 L 146.39100646972656 -91.55899810791014 L 146.6230010986328 -91.25499725341795 L 146.8990020751953 -90.98899841308592 L 147.21200561523438 -90.7689971923828 L 147.45599365234375 -90.64806365966795 L 147.55499267578125 -90.59899902343749 L 147.9199981689453 -90.48400115966795 L 148.29800415039062 -90.4250030517578 L 148.68099975585938 -90.4250030517578 L 149.0590057373047 -90.48400115966795 L 149.4239959716797 -90.59899902343749 L 149.76699829101562 -90.7689971923828 L 150.0800018310547 -90.98899841308592 L 150.3560028076172 -91.25499725341795 L 150.58799743652344 -91.55899810791014 L 150.77099609375 -91.89499664306639 L 150.86569213867188 -92.16000366210936 L 150.89999389648438 -92.25599670410155 L 150.97300720214844 -92.63099670410155 L 150.98800659179688 -93.01399993896483 L 150.94400024414062 -93.3939971923828 L 150.8419952392578 -93.76300048828124 L 150.68600463867188 -94.11199951171874 L 150.62399291992188 -94.20800018310545 L 150.47799682617188 -94.43399810791014 L 150.22300720214844 -94.71900177001952 L 149.92799377441406 -94.96299743652342 L 149.5989990234375 -95.15899658203124 L 149.24400329589844 -95.30200195312499 L 148.87100219726562 -95.38899993896483 L 148.49000549316406 -95.41799926757811 L 148.10800170898438 -95.38899993896483 L 147.73500061035156 -95.30200195312499 M 168.99899291992188 -55.39199829101561 L 168.6020050048828 -55.326999664306626 L 168.2209930419922 -55.20000076293944 L 167.93600463867188 -55.050712585449205 L 167.86399841308594 -55.013000488281236 L 167.54299926757812 -54.77099990844725 L 167.26400756835938 -54.48099899291991 L 167.03599548339844 -54.15000152587889 L 166.86300659179688 -53.78599929809569 L 166.75100708007812 -53.40000152587889 L 166.73275756835938 -53.2480010986328 L 166.7030029296875 -52.999999999999986 L 166.718994140625 -52.59799957275389 L 166.7989959716797 -52.203998565673814 L 166.94200134277344 -51.82799911499022 L 167.14300537109375 -51.479999542236314 L 167.3979949951172 -51.16799926757811 L 167.69900512695312 -50.901000976562486 L 167.93600463867188 -50.751132965087876 L 168.03900146484375 -50.686000823974595 L 168.40899658203125 -50.52799987792967 L 168.8000030517578 -50.431999206542955 L 169.2010040283203 -50.40000152587889 L 169.6020050048828 -50.431999206542955 L 169.99200439453125 -50.52799987792967 L 170.36199951171875 -50.686000823974595 L 170.70199584960938 -50.901000976562486 L 171.00399780273438 -51.16799926757811 L 171.25799560546875 -51.479999542236314 L 171.45899963378906 -51.82799911499022 L 171.6020050048828 -52.203998565673814 L 171.6820068359375 -52.59799957275389 L 171.69900512695312 -52.999999999999986 L 171.6686248779297 -53.2480010986328 L 171.64999389648438 -53.40000152587889 L 171.53799438476562 -53.78599929809569 L 171.36599731445312 -54.15000152587889 L 171.13699340820312 -54.48099899291991 L 170.85800170898438 -54.77099990844725 L 170.53700256347656 -55.013000488281236 L 170.17999267578125 -55.20000076293944 L 169.7989959716797 -55.326999664306626 L 169.40199279785156 -55.39199829101561 L 168.99899291992188 -55.39199829101561 M 143.55099487304688 -25.37199974060058 L 143.28199768066406 -25.49699974060058 L 142.99600219726562 -25.57399940490722 L 142.7010040283203 -25.60000038146972 L 142.406005859375 -25.57399940490722 L 142.11900329589844 -25.49699974060058 L 141.8509979248047 -25.37199974060058 L 141.60800170898438 -25.201999664306634 L 141.3979949951172 -24.99300003051757 L 141.22799682617188 -24.749999999999993 L 141.1471405029297 -24.57600021362304 L 141.10299682617188 -24.481000900268548 L 141.02699279785156 -24.19499969482421 L 141.00100708007812 -23.89999961853027 L 141.02699279785156 -23.604999542236325 L 141.10299682617188 -23.318000793457028 L 141.22799682617188 -23.049999237060543 L 141.3979949951172 -22.806999206542965 L 141.60800170898438 -22.597999572753903 L 141.8509979248047 -22.427999496459957 L 142.11900329589844 -22.302000045776364 L 142.406005859375 -22.225999832153317 L 142.7010040283203 -22.20000076293945 L 142.99600219726562 -22.225999832153317 L 143.28199768066406 -22.302000045776364 L 143.36000061035156 -22.338535308837887 L 143.55099487304688 -22.427999496459957 L 143.79299926757812 -22.597999572753903 L 144.0030059814453 -22.806999206542965 L 144.17300415039062 -23.049999237060543 L 144.29800415039062 -23.318000793457028 L 144.375 -23.604999542236325 L 144.4010009765625 -23.89999961853027 L 144.375 -24.19499969482421 L 144.29800415039062 -24.481000900268548 L 144.2538604736328 -24.57600021362304 L 144.17300415039062 -24.749999999999993 L 144.0030059814453 -24.99300003051757 L 143.79299926757812 -25.201999664306634 L 143.55099487304688 -25.37199974060058 M 99.47100067138672 -136.1159973144531 L 99.18499755859375 -136.1920013427734 L 98.88999938964844 -136.2180023193359 L 98.59500122070312 -136.1920013427734 L 98.30799865722656 -136.1159973144531 L 98.30400085449219 -136.1141204833984 L 98.04000091552734 -135.99000549316403 L 97.7969970703125 -135.82000732421872 L 97.58799743652344 -135.6109924316406 L 97.41799926757812 -135.36799621582028 L 97.32396697998047 -135.1679992675781 L 97.29199981689453 -135.1000061035156 L 97.21600341796875 -134.81300354003903 L 97.19000244140625 -134.51800537109372 L 97.21600341796875 -134.2230072021484 L 97.29199981689453 -133.9369964599609 L 97.41799926757812 -133.6679992675781 L 97.58799743652344 -133.42500305175778 L 97.7969970703125 -133.21600341796872 L 98.04000091552734 -133.0460052490234 L 98.30400085449219 -132.92286682128903 L 98.30799865722656 -132.9210052490234 L 98.59500122070312 -132.84399414062497 L 98.88999938964844 -132.81799316406247 L 99.18499755859375 -132.84399414062497 L 99.47100067138672 -132.9210052490234 L 99.73999786376953 -133.0460052490234 L 99.98300170898438 -133.21600341796872 L 100.19200134277344 -133.42500305175778 L 100.36199951171875 -133.6679992675781 L 100.48699951171875 -133.9369964599609 L 100.56400299072266 -134.2230072021484 L 100.58999633789062 -134.51800537109372 L 100.56400299072266 -134.81300354003903 L 100.48699951171875 -135.1000061035156 L 100.45528411865234 -135.1679992675781 L 100.36199951171875 -135.36799621582028 L 100.19200134277344 -135.6109924316406 L 99.98300170898438 -135.82000732421872 L 99.73999786376953 -135.99000549316403 L 99.47100067138672 -136.1159973144531 M 116.84700012207031 -130.0480041503906 L 116.03500366210938 -130.19799804687497 L 115.21499633789062 -130.2879943847656 L 114.68800354003906 -130.3071594238281 L 114.38999938964844 -130.31799316406247 L 113.56500244140625 -130.2879943847656 L 112.74400329589844 -130.19799804687497 L 111.93299865722656 -130.0480041503906 L 111.13400268554688 -129.83900451660153 L 110.35299682617188 -129.5720062255859 L 109.59300231933594 -129.24999999999997 L 108.85900115966797 -128.87199401855466 L 108.15499877929688 -128.4420013427734 L 107.48300170898438 -127.96199798583982 L 106.8489990234375 -127.43399810791013 L 106.49600219726562 -127.09348297119138 L 106.25499725341797 -126.86100006103513 L 105.7040023803711 -126.2460021972656 L 105.19999694824219 -125.59300231933591 L 104.74400329589844 -124.90499877929685 L 104.33999633789062 -124.18499755859372 L 103.98999786376953 -123.43800354003903 L 103.77649688720703 -122.87999725341794 L 103.69499969482422 -122.6669998168945 L 103.45700073242188 -121.87599945068357 L 103.27799987792969 -121.07099914550778 L 103.15799713134766 -120.25399780273435 L 103.09700012207031 -119.43099975585935 L 103.09700012207031 -118.60500335693357 L 103.15799713134766 -117.78199768066403 L 103.27799987792969 -116.96600341796872 L 103.45700073242188 -116.16000366210935 L 103.69499969482422 -115.370002746582 L 103.95594787597656 -114.68800354003903 L 103.98999786376953 -114.59899902343747 L 104.33999633789062 -113.85099792480466 L 104.74400329589844 -113.13200378417966 L 105.19999694824219 -112.443000793457 L 105.7040023803711 -111.79000091552732 L 106.25499725341797 -111.17500305175778 L 106.49600219726562 -110.94252014160153 L 106.8489990234375 -110.60199737548825 L 107.48300170898438 -110.07399749755857 L 108.15499877929688 -109.5940017700195 L 108.85900115966797 -109.16400146484372 L 109.59300231933594 -108.78700256347653 L 110.35299682617188 -108.463996887207 L 111.13400268554688 -108.19699859619138 L 111.93299865722656 -107.98799896240232 L 112.74400329589844 -107.838996887207 L 113.56500244140625 -107.74800109863278 L 114.38999938964844 -107.71800231933591 L 114.68800354003906 -107.72883605957028 L 115.21499633789062 -107.74800109863278 L 116.03500366210938 -107.838996887207 L 116.84700012207031 -107.98799896240232 L 117.6449966430664 -108.19699859619138 L 118.4260025024414 -108.463996887207 L 119.18599700927734 -108.78700256347653 L 119.91999816894531 -109.16400146484372 L 120.625 -109.5940017700195 L 121.2959976196289 -110.07399749755857 L 121.93000030517578 -110.60199737548825 L 122.5250015258789 -111.17500305175778 L 122.87999725341797 -111.57195281982419 L 123.07499694824219 -111.79000091552732 L 123.58000183105469 -112.443000793457 L 124.03500366210938 -113.13200378417966 L 124.43900299072266 -113.85099792480466 L 124.79000091552734 -114.59899902343747 L 124.82393646240234 -114.68800354003903 L 125.08399963378906 -115.370002746582 L 125.3219985961914 -116.16000366210935 L 125.50199890136719 -116.96600341796872 L 125.62200164794922 -117.78199768066403 L 125.68199920654297 -118.60500335693357 L 125.68199920654297 -119.43099975585935 L 125.62200164794922 -120.25399780273435 L 125.50199890136719 -121.07099914550778 L 125.3219985961914 -121.87599945068357 L 125.08399963378906 -122.6669998168945 L 125.00277709960938 -122.87999725341794 L 124.79000091552734 -123.43800354003903 L 124.43900299072266 -124.18499755859372 L 124.03500366210938 -124.90499877929685 L 123.58000183105469 -125.59300231933591 L 123.07499694824219 -126.2460021972656 L 122.87999725341797 -126.46404266357419 L 122.5250015258789 -126.86100006103513 L 121.93000030517578 -127.43399810791013 L 121.2959976196289 -127.96199798583982 L 120.625 -128.4420013427734 L 119.91999816894531 -128.87199401855466 L 119.18599700927734 -129.24999999999997 L 118.4260025024414 -129.5720062255859 L 117.6449966430664 -129.83900451660153 L 116.84700012207031 -130.0480041503906 M 99.98300170898438 -104.81999969482419 L 99.73999786376953 -104.9899978637695 L 99.47100067138672 -105.1159973144531 L 99.18499755859375 -105.19200134277341 L 98.88999938964844 -105.21800231933591 L 98.59500122070312 -105.19200134277341 L 98.30799865722656 -105.1159973144531 L 98.30400085449219 -105.11412048339841 L 98.04000091552734 -104.9899978637695 L 97.7969970703125 -104.81999969482419 L 97.58799743652344 -104.61100006103513 L 97.41799926757812 -104.36799621582028 L 97.29199981689453 -104.09999847412107 L 97.21600341796875 -103.81300354003903 L 97.19000244140625 -103.51799774169919 L 97.21600341796875 -103.22299957275388 L 97.29199981689453 -102.93699645996091 L 97.41799926757812 -102.6679992675781 L 97.58799743652344 -102.42500305175778 L 97.7969970703125 -102.21600341796872 L 98.04000091552734 -102.04599761962888 L 98.30400085449219 -101.92286682128903 L 98.30799865722656 -101.92099761962888 L 98.59500122070312 -101.8440017700195 L 98.88999938964844 -101.818000793457 L 99.18499755859375 -101.8440017700195 L 99.47100067138672 -101.92099761962888 L 99.73999786376953 -102.04599761962888 L 99.98300170898438 -102.21600341796872 L 100.16699981689453 -102.40000152587888 L 100.19200134277344 -102.42500305175778 L 100.36199951171875 -102.6679992675781 L 100.48699951171875 -102.93699645996091 L 100.56400299072266 -103.22299957275388 L 100.58999633789062 -103.51799774169919 L 100.56400299072266 -103.81300354003903 L 100.48699951171875 -104.09999847412107 L 100.36199951171875 -104.36799621582028 L 100.3060302734375 -104.44799804687497 L 100.19200134277344 -104.61100006103513 L 99.98300170898438 -104.81999969482419 M 114.74400329589844 -94.13899993896483 L 114.68800354003906 -94.14358520507811 L 114.38999938964844 -94.16799926757811 L 114.03600311279297 -94.13899993896483 L 113.69200134277344 -94.05200195312499 L 113.36599731445312 -93.90899658203124 L 113.06900024414062 -93.71499633789061 L 112.80799865722656 -93.47399902343749 L 112.58999633789062 -93.19400024414061 L 112.4209976196289 -92.88200378417967 L 112.30599975585938 -92.54599761962889 L 112.24700164794922 -92.1959991455078 L 112.24700164794922 -92.16000366210936 L 112.24700164794922 -91.84100341796874 L 112.30599975585938 -91.48999786376952 L 112.4209976196289 -91.15399932861327 L 112.58999633789062 -90.84200286865233 L 112.80799865722656 -90.56199645996092 L 113.06900024414062 -90.3209991455078 L 113.36599731445312 -90.12699890136717 L 113.40043640136719 -90.11199951171874 L 113.69200134277344 -89.98500061035155 L 114.03600311279297 -89.89700317382811 L 114.38999938964844 -89.8679962158203 L 114.68800354003906 -89.8924102783203 L 114.74400329589844 -89.89700317382811 L 115.08799743652344 -89.98500061035155 L 115.37866973876953 -90.11199951171874 L 115.41300201416016 -90.12699890136717 L 115.70999908447266 -90.3209991455078 L 115.97200012207031 -90.56199645996092 L 116.19000244140625 -90.84200286865233 L 116.35900115966797 -91.15399932861327 L 116.4739990234375 -91.48999786376952 L 116.53199768066406 -91.84100341796874 L 116.53199768066406 -92.16000366210936 L 116.53199768066406 -92.1959991455078 L 116.4739990234375 -92.54599761962889 L 116.35900115966797 -92.88200378417967 L 116.19000244140625 -93.19400024414061 L 115.97200012207031 -93.47399902343749 L 115.70999908447266 -93.71499633789061 L 115.41300201416016 -93.90899658203124 L 115.08799743652344 -94.05200195312499 L 114.74400329589844 -94.13899993896483 M 82.74400329589844 -93.3939971923828 L 82.64299774169922 -93.76300048828124 L 82.48600006103516 -94.11199951171874 L 82.27799987792969 -94.43399810791014 L 82.02400207519531 -94.71900177001952 L 81.91999816894531 -94.80473327636717 L 81.72799682617188 -94.96299743652342 L 81.39900207519531 -95.15899658203124 L 81.04399871826172 -95.30200195312499 L 80.6719970703125 -95.38899993896483 L 80.29000091552734 -95.41799926757811 L 79.90799713134766 -95.38899993896483 L 79.53600311279297 -95.30200195312499 L 79.18099975585938 -95.15899658203124 L 78.85199737548828 -94.96299743652342 L 78.55599975585938 -94.71900177001952 L 78.302001953125 -94.43399810791014 L 78.15601348876953 -94.20800018310545 L 78.09400177001953 -94.11199951171874 L 77.93699645996094 -93.76300048828124 L 77.83599853515625 -93.3939971923828 L 77.8239974975586 -93.29036712646483 L 77.79199981689453 -93.01399993896483 L 77.80599975585938 -92.63099670410155 L 77.8239974975586 -92.53853607177733 L 77.87899780273438 -92.25599670410155 L 77.91357421875 -92.16000366210936 L 78.00900268554688 -91.89499664306639 L 78.19200134277344 -91.55899810791014 L 78.42400360107422 -91.25499725341795 L 78.6989974975586 -90.98899841308592 L 79.01200103759766 -90.7689971923828 L 79.3550033569336 -90.59899902343749 L 79.72000122070312 -90.48400115966795 L 80.0989990234375 -90.4250030517578 L 80.48100280761719 -90.4250030517578 L 80.86000061035156 -90.48400115966795 L 81.2239990234375 -90.59899902343749 L 81.56700134277344 -90.7689971923828 L 81.88099670410156 -90.98899841308592 L 81.91999816894531 -91.02672576904295 L 82.15599822998047 -91.25499725341795 L 82.38800048828125 -91.55899810791014 L 82.57099914550781 -91.89499664306639 L 82.70099639892578 -92.25599670410155 L 82.77300262451172 -92.63099670410155 L 82.78800201416016 -93.01399993896483 L 82.74400329589844 -93.3939971923828 M 114.74400329589844 -54.13899993896483 L 114.68800354003906 -54.143589019775376 L 114.38999938964844 -54.16799926757811 L 114.03600311279297 -54.13899993896483 L 113.69200134277344 -54.05199813842772 L 113.36599731445312 -53.9090003967285 L 113.06900024414062 -53.715000152587876 L 112.80799865722656 -53.473999023437486 L 112.63204193115234 -53.2480010986328 L 112.58999633789062 -53.19400024414061 L 112.4209976196289 -52.88199996948241 L 112.30599975585938 -52.54600143432616 L 112.24700164794922 -52.1959991455078 L 112.24700164794922 -51.84099960327147 L 112.30599975585938 -51.49000167846678 L 112.4209976196289 -51.15399932861327 L 112.58999633789062 -50.841999053955064 L 112.80799865722656 -50.56200027465819 L 113.06900024414062 -50.3209991455078 L 113.36599731445312 -50.12699890136717 L 113.69200134277344 -49.98500061035155 L 114.03600311279297 -49.896999359130845 L 114.38999938964844 -49.868000030517564 L 114.68800354003906 -49.892414093017564 L 114.74400329589844 -49.896999359130845 L 115.08799743652344 -49.98500061035155 L 115.41300201416016 -50.12699890136717 L 115.70999908447266 -50.3209991455078 L 115.97200012207031 -50.56200027465819 L 116.19000244140625 -50.841999053955064 L 116.35900115966797 -51.15399932861327 L 116.4739990234375 -51.49000167846678 L 116.53199768066406 -51.84099960327147 L 116.53199768066406 -52.1959991455078 L 116.4739990234375 -52.54600143432616 L 116.35900115966797 -52.88199996948241 L 116.19000244140625 -53.19400024414061 L 116.14795684814453 -53.2480010986328 L 115.97200012207031 -53.473999023437486 L 115.70999908447266 -53.715000152587876 L 115.41300201416016 -53.9090003967285 L 115.08799743652344 -54.05199813842772 L 114.74400329589844 -54.13899993896483 M 115.14399719238281 -34.80199813842773 L 114.77100372314453 -34.88899993896484 L 114.68800354003906 -34.89531707763671 L 114.38999938964844 -34.91799926757812 L 114.00800323486328 -34.88899993896484 L 113.63500213623047 -34.80199813842773 L 113.27999877929688 -34.65900039672851 L 112.95099639892578 -34.463001251220696 L 112.65599822998047 -34.219001770019524 L 112.4010009765625 -33.93399810791015 L 112.19300079345703 -33.61199951171874 L 112.03700256347656 -33.26300048828124 L 111.93499755859375 -32.89400100708007 L 111.92074584960938 -32.76800155639648 L 111.89199829101562 -32.51399993896484 L 111.90599822998047 -32.13100051879882 L 111.97899627685547 -31.75600051879882 L 112.10800170898438 -31.395000457763665 L 112.29100036621094 -31.059000015258782 L 112.52300262451172 -30.754999160766594 L 112.79900360107422 -30.489000320434563 L 113.11199951171875 -30.268999099731438 L 113.45500183105469 -30.099000930786126 L 113.81999969482422 -29.98399925231933 L 114.197998046875 -29.92499923706054 L 114.58100128173828 -29.92499923706054 L 114.68800354003906 -29.94170188903808 L 114.95899963378906 -29.98399925231933 L 115.3239974975586 -30.099000930786126 L 115.66699981689453 -30.268999099731438 L 115.9800033569336 -30.489000320434563 L 116.25599670410156 -30.754999160766594 L 116.48799896240234 -31.059000015258782 L 116.6709976196289 -31.395000457763665 L 116.80000305175781 -31.75600051879882 L 116.87300109863281 -32.13100051879882 L 116.88800048828125 -32.51399993896484 L 116.85858917236328 -32.76800155639648 L 116.84400177001953 -32.89400100708007 L 116.74299621582031 -33.26300048828124 L 116.58599853515625 -33.61199951171874 L 116.37799835205078 -33.93399810791015 L 116.12300109863281 -34.219001770019524 L 115.8280029296875 -34.463001251220696 L 115.4990005493164 -34.65900039672851 L 115.14399719238281 -34.80199813842773 M 241.8000030517578 -69.74999999999999 L 241.8000030517578 -76.0500030517578 L 240 -76.0500030517578 L 240 -69.74999999999999 L 241.8000030517578 -69.74999999999999 M 173.9010009765625 -76.0500030517578 L 172.1009979248047 -76.0500030517578 L 172.1009979248047 -69.74999999999999 L 173.9010009765625 -69.74999999999999 L 173.9010009765625 -76.0500030517578 z" fill="none" stroke="rgb(255,0,0)" stroke-width="0.001mm" />
</svg>