<?xml version="1.0" standalone="no"?>
<!DOCTYPE svg PUBLIC "-//W3C//DTD SVG 1.1//EN"
  "http://www.w3.org/Graphics/SVG/1.1/DTD/svg11.dtd">
<svg width="152mm" height="151.99999999999997mm" viewBox="22 -8.999999999999998 152 151.99999999999997" xmlns="http://www.w3.org/2000/svg" version="1.1">
	<title>svgOutput</title>
	<desc>made with tinkercad</desc>
<path d="M 172.96400451660156 -3.6029999256134024 L 173 -2.999999999999999 L 173 1.1102230246251565e-16 L 173 32.76800155639648 L 173 65.53600311279295 L 173 98.30400085449216 L 173 131.0720062255859 L 173 136.99999999999997 L 172.96400451660156 137.60299682617185 L 172.85499572753906 138.1970062255859 L 172.6750030517578 138.77299499511716 L 172.427001953125 139.3240051269531 L 172.11500549316406 139.8399963378906 L 171.7429962158203 140.31599426269528 L 171.3159942626953 140.74299621582028 L 170.83999633789062 141.11500549316403 L 170.32400512695312 141.42700195312497 L 169.7729949951172 141.67500305175778 L 169.19700622558594 141.85499572753903 L 168.60299682617188 141.96400451660153 L 168 141.99999999999997 L 131.07200622558594 141.99999999999997 L 28 141.99999999999997 L 27.39699935913086 141.96400451660153 L 26.80299949645996 141.85499572753903 L 26.226999282836914 141.67500305175778 L 25.676000595092773 141.42700195312497 L 25.15999984741211 141.11500549316403 L 24.68400001525879 140.74299621582028 L 24.256999969482422 140.31599426269528 L 23.885000228881836 139.8399963378906 L 23.572999954223633 139.3240051269531 L 23.325000762939453 138.77299499511716 L 23.145000457763672 138.1970062255859 L 23.035999298095703 137.60299682617185 L 23 136.99999999999997 L 23 131.0720062255859 L 23 98.30400085449216 L 23 65.53600311279295 L 23 1.1102230246251565e-16 L 23 -2.999999999999999 L 23.035999298095703 -3.6029999256134024 L 23.145000457763672 -4.19700002670288 L 23.325000762939453 -4.772999763488769 L 23.572999954223633 -5.323999881744384 L 23.885000228881836 -5.84000015258789 L 24.256999969482422 -6.315999984741209 L 24.68400001525879 -6.743000030517576 L 25.15999984741211 -7.114999771118162 L 25.676000595092773 -7.427000045776365 L 26.226999282836914 -7.6750001907348615 L 26.80299949645996 -7.8550000190734846 L 27.39699935913086 -7.964000225067137 L 28 -7.999999999999998 L 131.07200622558594 -7.999999999999998 L 168 -7.999999999999998 L 168.60299682617188 -7.964000225067137 L 169.19700622558594 -7.8550000190734846 L 169.7729949951172 -7.6750001907348615 L 170.32400512695312 -7.427000045776365 L 170.83999633789062 -7.114999771118162 L 171.3159942626953 -6.743000030517576 L 171.7429962158203 -6.315999984741209 L 172.11500549316406 -5.84000015258789 L 172.427001953125 -5.323999881744384 L 172.6750030517578 -4.772999763488769 L 172.85499572753906 -4.19700002670288 L 172.96400451660156 -3.6029999256134024 M 156.1739959716797 14.704999923706051 L 156.0970001220703 14.418999671936032 L 155.9720001220703 14.14999961853027 L 155.802001953125 13.906999588012692 L 155.6479949951172 13.75300025939941 L 155.59300231933594 13.69799995422363 L 155.35000610351562 13.527999877929684 L 155.08099365234375 13.402999877929684 L 154.7949981689453 13.326000213623043 L 154.5 13.30000019073486 L 154.2050018310547 13.326000213623043 L 153.91900634765625 13.402999877929684 L 153.64999389648438 13.527999877929684 L 153.40699768066406 13.69799995422363 L 153.197998046875 13.906999588012692 L 153.0279998779297 14.14999961853027 L 152.9408721923828 14.33600044250488 L 152.90199279785156 14.418999671936032 L 152.8260040283203 14.704999923706051 L 152.8000030517578 14.999999999999996 L 152.8260040283203 15.295000076293942 L 152.90199279785156 15.581000328063961 L 153.0279998779297 15.850000381469723 L 153.197998046875 16.0930004119873 L 153.40699768066406 16.302000045776364 L 153.5242156982422 16.38400077819824 L 153.64999389648438 16.47200012207031 L 153.91900634765625 16.59700012207031 L 154.2050018310547 16.67399978637695 L 154.5 16.70000076293945 L 154.7949981689453 16.67399978637695 L 155.08099365234375 16.59700012207031 L 155.35000610351562 16.47200012207031 L 155.4757843017578 16.38400077819824 L 155.59300231933594 16.302000045776364 L 155.6479949951172 16.246999740600582 L 155.802001953125 16.0930004119873 L 155.9720001220703 15.850000381469723 L 156.0970001220703 15.581000328063961 L 156.1739959716797 15.295000076293942 L 156.1999969482422 14.999999999999996 L 156.1739959716797 14.704999923706051 M 156.1739959716797 113.29499816894528 L 156.1999969482422 112.99999999999997 L 156.1739959716797 112.70500183105466 L 156.0970001220703 112.41899871826169 L 155.9720001220703 112.15000152587888 L 155.802001953125 111.90699768066403 L 155.6479949951172 111.75299835205075 L 155.59300231933594 111.69799804687497 L 155.35000610351562 111.52799987792966 L 155.08099365234375 111.40299987792966 L 154.7949981689453 111.32599639892575 L 154.5 111.30000305175778 L 154.2050018310547 111.32599639892575 L 153.91900634765625 111.40299987792966 L 153.64999389648438 111.52799987792966 L 153.40699768066406 111.69799804687497 L 153.197998046875 111.90699768066403 L 153.0279998779297 112.15000152587888 L 152.90199279785156 112.41899871826169 L 152.84327697753906 112.63999938964841 L 152.8260040283203 112.70500183105466 L 152.8000030517578 112.99999999999997 L 152.8260040283203 113.29499816894528 L 152.90199279785156 113.58100128173825 L 153.0279998779297 113.84999847412107 L 153.197998046875 114.09300231933591 L 153.40699768066406 114.30200195312497 L 153.64999389648438 114.47200012207028 L 153.91900634765625 114.59700012207028 L 154.2050018310547 114.67400360107419 L 154.3638458251953 114.68800354003903 L 154.5 114.69999694824216 L 154.6361541748047 114.68800354003903 L 154.7949981689453 114.67400360107419 L 155.08099365234375 114.59700012207028 L 155.35000610351562 114.47200012207028 L 155.59300231933594 114.30200195312497 L 155.6479949951172 114.24700164794919 L 155.802001953125 114.09300231933591 L 155.9720001220703 113.84999847412107 L 156.0970001220703 113.58100128173825 L 156.1739959716797 113.29499816894528 M 70.302001953125 13.906999588012692 L 70.09300231933594 13.69799995422363 L 69.8499984741211 13.527999877929684 L 69.63200378417969 13.42669868469238 L 69.58100128173828 13.402999877929684 L 69.29499816894531 13.326000213623043 L 69 13.30000019073486 L 68.70500183105469 13.326000213623043 L 68.41899871826172 13.402999877929684 L 68.1500015258789 13.527999877929684 L 67.90699768066406 13.69799995422363 L 67.697998046875 13.906999588012692 L 67.52799987792969 14.14999961853027 L 67.44087982177734 14.33600044250488 L 67.4020004272461 14.418999671936032 L 67.32599639892578 14.704999923706051 L 67.30000305175781 14.999999999999996 L 67.32599639892578 15.295000076293942 L 67.4020004272461 15.581000328063961 L 67.52799987792969 15.850000381469723 L 67.697998046875 16.0930004119873 L 67.90699768066406 16.302000045776364 L 68.02420806884766 16.38400077819824 L 68.1500015258789 16.47200012207031 L 68.41899871826172 16.59700012207031 L 68.70500183105469 16.67399978637695 L 69 16.70000076293945 L 69.29499816894531 16.67399978637695 L 69.58100128173828 16.59700012207031 L 69.8499984741211 16.47200012207031 L 69.97579193115234 16.38400077819824 L 70.09300231933594 16.302000045776364 L 70.302001953125 16.0930004119873 L 70.47200012207031 15.850000381469723 L 70.59700012207031 15.581000328063961 L 70.67400360107422 15.295000076293942 L 70.69999694824219 14.999999999999996 L 70.67400360107422 14.704999923706051 L 70.59700012207031 14.418999671936032 L 70.47200012207031 14.14999961853027 L 70.302001953125 13.906999588012692 M 43.09700012207031 112.41899871826169 L 42.97200012207031 112.15000152587888 L 42.801998138427734 111.90699768066403 L 42.59299850463867 111.69799804687497 L 42.349998474121094 111.52799987792966 L 42.08100128173828 111.40299987792966 L 41.79499816894531 111.32599639892575 L 41.5 111.30000305175778 L 41.20500183105469 111.32599639892575 L 40.959999084472656 111.39196014404294 L 40.91899871826172 111.40299987792966 L 40.650001525878906 111.52799987792966 L 40.40700149536133 111.69799804687497 L 40.198001861572266 111.90699768066403 L 40.02799987792969 112.15000152587888 L 39.90299987792969 112.41899871826169 L 39.82600021362305 112.70500183105466 L 39.79999923706055 112.99999999999997 L 39.82600021362305 113.29499816894528 L 39.90299987792969 113.58100128173825 L 40.02799987792969 113.84999847412107 L 40.198001861572266 114.09300231933591 L 40.40700149536133 114.30200195312497 L 40.650001525878906 114.47200012207028 L 40.91899871826172 114.59700012207028 L 40.959999084472656 114.608039855957 L 41.20500183105469 114.67400360107419 L 41.36384582519531 114.68800354003903 L 41.5 114.69999694824216 L 41.63615417480469 114.68800354003903 L 41.79499816894531 114.67400360107419 L 42.08100128173828 114.59700012207028 L 42.349998474121094 114.47200012207028 L 42.59299850463867 114.30200195312497 L 42.801998138427734 114.09300231933591 L 42.97200012207031 113.84999847412107 L 43.09700012207031 113.58100128173825 L 43.17399978637695 113.29499816894528 L 43.20000076293945 112.99999999999997 L 43.17399978637695 112.70500183105466 L 43.15650177001953 112.63999938964841 L 43.09700012207031 112.41899871826169 z" fill="none" stroke="rgb(255,0,0)" stroke-width="0.001mm" />
</svg>