<?xml version="1.0" standalone="no"?>
<!DOCTYPE svg PUBLIC "-//W3C//DTD SVG 1.1//EN"
  "http://www.w3.org/Graphics/SVG/1.1/DTD/svg11.dtd">
<svg width="154.4900016784668mm" height="112.59799194335935mm" viewBox="-90.94000244140625 -135.4579925537109 154.4900016784668 112.59799194335935" xmlns="http://www.w3.org/2000/svg" version="1.1">
	<title>svgOutput</title>
	<desc>made with tinkercad</desc>
<path d="M 52.32398223876953 -134.32427978515622 L 52.3240852355957 -134.32426452636716 L 53.05799865722656 -134.1940002441406 L 53.87200164794922 -133.99000549316403 L 54.67100143432617 -133.72999572753903 L 55.45000076293945 -133.41499328613278 L 56.20399856567383 -133.04499816894528 L 56.930999755859375 -132.62399291992185 L 57.62699890136719 -132.15299987792966 L 58.28799819946289 -131.6349945068359 L 58.90989685058594 -131.0720062255859 L 58.9109992980957 -131.07099914550778 L 59.49300003051758 -130.46600341796872 L 60.03099822998047 -129.82099914550778 L 60.52299880981445 -129.1399993896484 L 60.965999603271484 -128.42599487304685 L 61.358001708984375 -127.68299865722653 L 61.696998596191406 -126.91400146484372 L 61.981998443603516 -126.12400054931638 L 62.209999084472656 -125.31600189208982 L 62.38199996948242 -124.49299621582028 L 62.494998931884766 -123.66100311279294 L 62.54619598388672 -122.87999725341794 L 62.54999923706055 -122.82199859619138 L 62.54600143432617 -121.98200225830075 L 62.483001708984375 -121.14499664306638 L 62.36199951171875 -120.31300354003903 L 62.18299865722656 -119.49299621582028 L 61.946998596191406 -118.68599700927732 L 61.65599822998047 -117.89900207519528 L 61.308998107910156 -117.13300323486325 L 60.098392486572266 -114.68800354003903 L 55.9640007019043 -106.33799743652341 L 51.98592758178711 -98.30400085449216 L 46.5625 -87.35099792480467 L 35.76063537597656 -65.53600311279295 L 32.768001556396484 -59.49219512939452 L 32.3489990234375 -58.64599990844725 L 31.704315185546875 -57.34400177001952 L 27.648052215576172 -49.15200042724608 L 22.191999435424805 -38.13299942016601 L 22.189922332763672 -38.12914276123046 L 21.797000885009766 -37.4000015258789 L 21.35099983215332 -36.695999145507805 L 20.857999801635742 -36.02399826049804 L 20.31999969482422 -35.38899993896484 L 19.738000869750977 -34.791999816894524 L 19.117000579833984 -34.23699951171874 L 18.458999633789062 -33.726001739501946 L 17.767000198364258 -33.26300048828124 L 17.04400062561035 -32.8479995727539 L 16.87870979309082 -32.76800155639648 L 16.29400062561035 -32.485000610351555 L 15.520999908447266 -32.173999786376946 L 14.727999687194824 -31.917999267578118 L 13.920000076293945 -31.718000411987298 L 13.098999977111816 -31.57399940490722 L 12.270999908447266 -31.486999511718743 L 11.437999725341797 -31.45800018310546 L 0 -31.45800018310546 L -29.913999557495117 -31.45800018310546 L -29.913999557495117 -40.22100067138671 L -32.768001556396484 -40.22100067138671 L -34.91400146484375 -40.22100067138671 L -34.91400146484375 -41.384998321533196 L -34.91400146484375 -48.98300170898436 L -32.768001556396484 -48.98300170898436 L -29.913999557495117 -48.98300170898436 L -29.913999557495117 -57.745998382568345 L -32.768001556396484 -57.745998382568345 L -34.91400146484375 -57.745998382568345 L -34.91400146484375 -58.909999847412095 L -34.91400146484375 -65.53600311279295 L -34.91400146484375 -66.50800323486327 L -32.768001556396484 -66.50800323486327 L -29.913999557495117 -66.50800323486327 L -29.913999557495117 -75.27100372314452 L -32.768001556396484 -75.27100372314452 L -34.91400146484375 -75.27100372314452 L -34.91400146484375 -81.9199981689453 L -34.91400146484375 -84.03299713134764 L -32.768001556396484 -84.03299713134764 L -29.913999557495117 -84.03299713134764 L -29.913999557495117 -92.79599761962889 L -32.768001556396484 -92.79599761962889 L -34.91400146484375 -92.79599761962889 L -34.91400146484375 -98.30400085449216 L -34.91400146484375 -101.55799865722653 L -32.768001556396484 -101.55799865722653 L -29.913999557495117 -101.55799865722653 L -29.913999557495117 -114.68800354003903 L -29.913999557495117 -122.45800018310544 L -29.899572372436523 -122.87999725341794 L -29.88599967956543 -123.27700042724607 L -29.80299949645996 -124.09200286865232 L -29.663000106811523 -124.90000152587888 L -29.4689998626709 -125.69599914550778 L -29.22100067138672 -126.47699737548825 L -28.92099952697754 -127.23899841308591 L -28.569000244140625 -127.97899627685544 L -28.16699981689453 -128.69299316406247 L -27.718000411987305 -129.37800598144528 L -27.222999572753906 -130.03100585937497 L -26.68400001525879 -130.64900207519528 L -26.26099967956543 -131.0720062255859 L -26.104999542236328 -131.22799682617185 L -25.48699951171875 -131.7669982910156 L -24.833999633789062 -132.2619934082031 L -24.14900016784668 -132.71099853515622 L -23.434999465942383 -133.11300659179685 L -22.69499969482422 -133.4649963378906 L -21.933000564575195 -133.7649993896484 L -21.152000427246094 -134.01300048828122 L -20.356000900268555 -134.20700073242185 L -19.54800033569336 -134.34599304199216 L -18.732999801635742 -134.42999267578122 L -17.913999557495117 -134.4579925537109 L -16.384000778198242 -134.4579925537109 L -6.914000034332275 -134.4579925537109 L -6.296000003814697 -134.36000061035153 L -6.00600004196167 -134.24000549316403 L -5.73799991607666 -134.07600402832028 L -5.5 -133.87199401855466 L -5.296000003814697 -133.63400268554685 L -5.131999969482422 -133.3659973144531 L -5.01200008392334 -133.07600402832028 L -4.938000202178955 -132.77099609374997 L -4.914000034332275 -132.4579925537109 L -4.914000034332275 -131.0720062255859 L -4.914000034332275 -127.45800018310544 L -4.888999938964844 -127.14499664306638 L -4.815999984741211 -126.8399963378906 L -4.696000099182129 -126.55000305175778 L -4.5320000648498535 -126.28299713134763 L -4.328000068664551 -126.04399871826169 L -4.089000225067139 -125.8399963378906 L -3.822000026702881 -125.67600250244138 L -3.5320000648498535 -125.55599975585935 L -3.2269999980926514 -125.48300170898435 L -2.9140000343322754 -125.45800018310544 L 0 -125.45800018310544 L 32.768001556396484 -125.45800018310544 L 36.2869987487793 -125.45800018310544 L 36.599998474121094 -125.48300170898435 L 36.904998779296875 -125.55599975585935 L 37.19499969482422 -125.67600250244138 L 37.4630012512207 -125.8399963378906 L 37.70100021362305 -126.04399871826169 L 37.904998779296875 -126.28299713134763 L 38.069000244140625 -126.55000305175778 L 38.18899917602539 -126.8399963378906 L 38.26300048828125 -127.14499664306638 L 38.2869987487793 -127.45800018310544 L 38.2869987487793 -131.0720062255859 L 38.2869987487793 -132.4579925537109 L 38.3120002746582 -132.77099609374997 L 38.3849983215332 -133.07600402832028 L 38.505001068115234 -133.3659973144531 L 38.66899871826172 -133.63400268554685 L 38.87300109863281 -133.87199401855466 L 39.11199951171875 -134.07600402832028 L 39.37900161743164 -134.24000549316403 L 39.685394287109375 -134.36674499511716 L 44.96699905395508 -134.34899902343747 L 49.152000427246094 -134.33493041992185 L 51.80649948120117 -134.32600402832028 L 52.32398223876953 -134.32427978515622 M -37.387001037597656 -132.79699707031247 L -37.11800003051758 -132.7339935302734 L -36.85499954223633 -132.64599609374997 L -36.60100173950195 -132.53399658203122 L -36.35900115966797 -132.39900207519528 L -36.13100051879883 -132.24200439453122 L -35.917999267578125 -132.06500244140622 L -35.72200012207031 -131.8690032958984 L -35.54499816894531 -131.65600585937497 L -35.38800048828125 -131.42799377441403 L -35.25299835205078 -131.18499755859372 L -35.20297622680664 -131.0720062255859 L -35.14099884033203 -130.93200683593747 L -35.053001403808594 -130.66900634765622 L -34.9900016784668 -130.39900207519528 L -34.95100021362305 -130.12499999999997 L -34.93899917602539 -129.8480072021484 L -34.93899917602539 -122.87999725341794 L -34.93899917602539 -115.84799957275388 L -34.95100021362305 -115.57099914550778 L -34.9900016784668 -115.29699707031247 L -35.053001403808594 -115.02700042724607 L -35.14099884033203 -114.76499938964841 L -35.17495346069336 -114.68800354003903 L -35.25299835205078 -114.51100158691403 L -35.38800048828125 -114.26899719238278 L -35.54499816894531 -114.04000091552732 L -35.72200012207031 -113.82700347900388 L -35.917999267578125 -113.63099670410153 L -36.13100051879883 -113.45400238037107 L -36.35900115966797 -113.29799652099607 L -36.60100173950195 -113.16300201416013 L -36.85499954223633 -113.05100250244138 L -37.11800003051758 -112.96299743652341 L -37.387001037597656 -112.89900207519528 L -37.6619987487793 -112.86100006103513 L -37.93899917602539 -112.84799957275388 L -49.152000427246094 -112.84799957275388 L -57.34400177001953 -112.84799957275388 L -60.93899917602539 -112.84799957275388 L -61.215999603271484 -112.83499908447263 L -61.4900016784668 -112.79699707031247 L -61.7599983215332 -112.73400115966794 L -62.02299880981445 -112.6460037231445 L -62.277000427246094 -112.53399658203122 L -62.51900100708008 -112.39900207519528 L -62.74700164794922 -112.24199676513669 L -62.959999084472656 -112.06500244140622 L -63.15599822998047 -111.86900329589841 L -63.33300018310547 -111.65599822998044 L -63.4900016784668 -111.42800140380857 L -63.625 -111.18499755859372 L -63.73699951171875 -110.93199920654294 L -63.82500076293945 -110.66899871826169 L -63.84296798706055 -110.59200286865232 L -63.88800048828125 -110.39900207519528 L -63.926998138427734 -110.12499999999997 L -63.93899917602539 -109.84799957275388 L -63.93899917602539 -106.4960021972656 L -63.93899917602539 -98.30400085449216 L -63.93899917602539 -95.84799957275389 L -63.95199966430664 -95.5709991455078 L -63.9900016784668 -95.29699707031249 L -64.05400085449219 -95.02700042724608 L -64.14199829101562 -94.76399993896483 L -64.25399780273438 -94.51100158691405 L -64.38899993896484 -94.2689971923828 L -64.54499816894531 -94.04000091552733 L -64.72200012207031 -93.82700347900389 L -64.91799926757812 -93.63099670410155 L -65.13099670410156 -93.45400238037108 L -65.36000061035156 -93.29799652099608 L -65.53600311279297 -93.19982147216795 L -65.60199737548828 -93.16300201416014 L -65.85600280761719 -93.05100250244139 L -66.11799621582031 -92.96299743652342 L -66.38800048828125 -92.8990020751953 L -66.66300201416016 -92.86100006103514 L -81.91999816894531 -92.85060119628905 L -87.197998046875 -92.8470001220703 L -87.76100158691406 -92.96299743652342 L -88.02400207519531 -93.05100250244139 L -88.2770004272461 -93.16300201416014 L -88.51899719238281 -93.29799652099608 L -88.74800109863281 -93.45400238037108 L -88.96099853515625 -93.63099670410155 L -89.15699768066406 -93.82700347900389 L -89.33399963378906 -94.04000091552733 L -89.49099731445312 -94.2689971923828 L -89.625 -94.51100158691405 L -89.73699951171875 -94.76399993896483 L -89.82499694824219 -95.02700042724608 L -89.88899993896484 -95.29699707031249 L -89.94000244140625 -95.85800170898436 L -89.94000244140625 -98.30400085449216 L -89.94000244140625 -114.68800354003903 L -89.94000244140625 -129.85800170898435 L -89.82499694824219 -130.66900634765622 L -89.73699951171875 -130.93200683593747 L -89.6750259399414 -131.0720062255859 L -89.625 -131.18499755859372 L -89.49099731445312 -131.42799377441403 L -89.33399963378906 -131.65600585937497 L -89.15699768066406 -131.8690032958984 L -88.96099853515625 -132.06500244140622 L -88.74800109863281 -132.24200439453122 L -88.51899719238281 -132.39900207519528 L -88.2770004272461 -132.53399658203122 L -88.02400207519531 -132.64599609374997 L -87.76100158691406 -132.7339935302734 L -87.49099731445312 -132.79699707031247 L -87.21855163574219 -132.83477783203122 L -87.21700286865234 -132.83500671386716 L -75.03199768066406 -132.8379974365234 L -65.53600311279297 -132.84049987792966 L -50.393001556396484 -132.84449768066403 L -37.93899917602539 -132.8480072021484 L -37.387001037597656 -132.79699707031247 M -38.06800079345703 -84.03299713134764 L -38.06800079345703 -81.9199981689453 L -38.06800079345703 -76.43499755859374 L -43.06800079345703 -76.43499755859374 L -43.06800079345703 -67.67199707031249 L -38.06800079345703 -67.67199707031249 L -38.06800079345703 -65.53600311279295 L -38.06800079345703 -58.909999847412095 L -43.06800079345703 -58.909999847412095 L -43.06800079345703 -50.146999359130845 L -38.06800079345703 -50.146999359130845 L -38.06800079345703 -49.15200042724608 L -38.06800079345703 -48.98300170898436 L -38.06800079345703 -41.384998321533196 L -43.06800079345703 -41.384998321533196 L -43.06800079345703 -32.76800155639648 L -43.06800079345703 -32.62200164794921 L -38.06800079345703 -32.62200164794921 L -38.06800079345703 -23.86000061035156 L -43.06800079345703 -23.86000061035156 L -49.152000427246094 -23.86000061035156 L -57.34400177001953 -23.86000061035156 L -65.53600311279297 -23.86000061035156 L -81.91999816894531 -23.86000061035156 L -85.43499755859375 -23.86000061035156 L -86.15116119384766 -24.57600021362304 L -86.56623840332031 -24.990983963012688 L -87.22591400146484 -25.650520324707024 L -89.93599700927734 -28.360000610351555 L -89.93605041503906 -28.67200088500976 L -89.93669891357422 -32.76800155639648 L -89.93931579589844 -49.15200042724608 L -89.94000244140625 -53.46900177001952 L -89.93843841552734 -57.34400177001952 L -89.93678283691406 -61.43999862670897 L -89.93659973144531 -61.90931320190428 L -89.93599700927734 -63.38899993896483 L -89.24221801757812 -65.06307220458983 L -89.04622650146484 -65.53600311279295 L -88.47100067138672 -66.9240036010742 L -73.4749984741211 -81.9199981689453 L -65.53600311279297 -89.85900115966795 L -65.28299713134766 -90.11199951171874 L -64.1552734375 -91.23973083496092 L -63.93899917602539 -91.45600128173827 L -62.89899826049805 -92.49600219726561 L -59.36399841308594 -93.95999908447264 L -49.152000427246094 -93.95999908447264 L -43.06800079345703 -93.95999908447264 L -43.06800079345703 -85.19699859619139 L -38.06800079345703 -85.19699859619139 L -38.06800079345703 -84.03299713134764 M 49.4379997253418 -123.1460037231445 L 49.152000427246094 -122.98090362548825 L 49.095001220703125 -122.94799804687497 L 49.0096549987793 -122.87999725341794 L 48.78499984741211 -122.70099639892575 L 48.51599884033203 -122.41000366210935 L 48.29199981689453 -122.08300018310544 L 48.12099838256836 -121.72599792480466 L 48.00400161743164 -121.34799957275388 L 47.94499969482422 -120.95600128173825 L 47.94499969482422 -120.55999755859372 L 48.00400161743164 -120.1679992675781 L 48.12099838256836 -119.79000091552732 L 48.29199981689453 -119.43299865722653 L 48.51599884033203 -119.10600280761716 L 48.78499984741211 -118.81500244140622 L 49.095001220703125 -118.5690002441406 L 49.152000427246094 -118.53592681884763 L 49.4379997253418 -118.370002746582 L 49.805999755859375 -118.22599792480466 L 50.19300079345703 -118.13800048828122 L 50.5880012512207 -118.10800170898435 L 50.981998443603516 -118.13800048828122 L 51.36899948120117 -118.22599792480466 L 51.73699951171875 -118.370002746582 L 52.08000183105469 -118.5690002441406 L 52.35093307495117 -118.78399658203122 L 52.38999938964844 -118.81500244140622 L 52.659000396728516 -119.10600280761716 L 52.88199996948242 -119.43299865722653 L 53.05400085449219 -119.79000091552732 L 53.17100143432617 -120.1679992675781 L 53.22999954223633 -120.55999755859372 L 53.22999954223633 -120.95600128173825 L 53.17100143432617 -121.34799957275388 L 53.05400085449219 -121.72599792480466 L 52.88199996948242 -122.08300018310544 L 52.659000396728516 -122.41000366210935 L 52.38999938964844 -122.70099639892575 L 52.16534423828125 -122.87999725341794 L 52.08000183105469 -122.94799804687497 L 51.73699951171875 -123.1460037231445 L 51.36899948120117 -123.29000091552732 L 50.981998443603516 -123.37799835205075 L 50.5880012512207 -123.40799713134763 L 50.19300079345703 -123.37799835205075 L 49.805999755859375 -123.29000091552732 L 49.4379997253418 -123.1460037231445 M 17.05500030517578 -112.80200195312497 L 16.384000778198242 -113.07199096679685 L 16.041000366210938 -113.20999908447263 L 15.006999969482422 -113.56199645996091 L 13.954999923706055 -113.85700225830075 L 12.887999534606934 -114.09300231933591 L 11.8100004196167 -114.2720031738281 L 10.723999977111816 -114.390998840332 L 9.633000373840332 -114.45099639892575 L 8.539999961853027 -114.45099639892575 L 8.192000389099121 -114.43186187744138 L 7.448999881744385 -114.390998840332 L 6.36299991607666 -114.2720031738281 L 5.284999847412109 -114.09300231933591 L 4.218999862670898 -113.85700225830075 L 3.1659998893737793 -113.56199645996091 L 2.131999969482422 -113.20999908447263 L 1.1180000305175781 -112.80200195312497 L 0.12800000607967377 -112.3399963378906 L 0 -112.27141571044919 L -0.8349999785423279 -111.82399749755857 L -1.7680000066757202 -111.25599670410153 L -2.6689999103546143 -110.63800048828122 L -3.5360000133514404 -109.97200012207028 L -4.363999843597412 -109.26000213623044 L -5.1519999504089355 -108.50299835205075 L -5.8979997634887695 -107.70500183105466 L -6.598999977111816 -106.86699676513669 L -6.876296043395996 -106.4960021972656 L -7.252999782562256 -105.99199676513669 L -7.859000205993652 -105.08200073242185 L -8.413999557495117 -104.140998840332 L -8.916000366210938 -103.17099761962888 L -9.364999771118164 -102.17500305175778 L -9.758999824523926 -101.15599822998044 L -10.097000122070312 -100.11699676513669 L -10.376999855041504 -99.06099700927732 L -10.534059524536133 -98.30400085449216 L -10.598999977111816 -97.9909973144531 L -10.762999534606934 -96.91000366210935 L -10.866999626159668 -95.82299804687499 L -10.911999702453613 -94.73100280761717 L -10.897000312805176 -93.63899993896483 L -10.822999954223633 -92.5490036010742 L -10.689000129699707 -91.46399688720702 L -10.496000289916992 -90.38899993896483 L -10.430333137512207 -90.11199951171874 L -10.244000434875488 -89.32599639892577 L -9.9350004196167 -88.27799987792967 L -9.569000244140625 -87.2480010986328 L -9.14799976348877 -86.23999786376952 L -8.67199993133545 -85.25700378417967 L -8.142999649047852 -84.30100250244139 L -7.561999797821045 -83.37499999999999 L -6.932000160217285 -82.48200225830077 L -6.4868645668029785 -81.9199981689453 L -6.254000186920166 -81.62599945068358 L -5.531000137329102 -80.80699920654295 L -4.763000011444092 -80.02899932861327 L -3.9549999237060547 -79.2939987182617 L -3.1070001125335693 -78.60500335693358 L -2.2230000495910645 -77.96299743652342 L -1.3049999475479126 -77.37000274658202 L -0.3569999933242798 -76.82800292968749 L 0 -76.64894866943358 L 0.6200000047683716 -76.33799743652342 L 1.621999979019165 -75.90299987792967 L 2.6470000743865967 -75.5230026245117 L 3.690000057220459 -75.19999694824217 L 4.75 -74.93399810791014 L 5.822999954223633 -74.72599792480467 L 6.90500020980835 -74.57700347900389 L 7.99399995803833 -74.48799896240233 L 9.086999893188477 -74.45800018310545 L 10.178999900817871 -74.48799896240233 L 11.267999649047852 -74.57700347900389 L 12.350000381469727 -74.72599792480467 L 13.42300033569336 -74.93399810791014 L 14.482999801635742 -75.19999694824217 L 15.526000022888184 -75.5230026245117 L 16.384000778198242 -75.84108734130858 L 16.551000595092773 -75.90299987792967 L 17.55299949645996 -76.33799743652342 L 18.530000686645508 -76.82800292968749 L 19.47800064086914 -77.37000274658202 L 20.395999908447266 -77.96299743652342 L 21.280000686645508 -78.60500335693358 L 22.128000259399414 -79.2939987182617 L 22.93600082397461 -80.02899932861327 L 23.70400047302246 -80.80699920654295 L 24.427000045776367 -81.62599945068358 L 24.65986442565918 -81.9199981689453 L 25.104999542236328 -82.48200225830077 L 25.735000610351562 -83.37499999999999 L 26.31599998474121 -84.30100250244139 L 26.844999313354492 -85.25700378417967 L 27.320999145507812 -86.23999786376952 L 27.742000579833984 -87.2480010986328 L 28.107999801635742 -88.27799987792967 L 28.41699981689453 -89.32599639892577 L 28.60333251953125 -90.11199951171874 L 28.66900062561035 -90.38899993896483 L 28.86199951171875 -91.46399688720702 L 28.996000289916992 -92.5490036010742 L 29.06999969482422 -93.63899993896483 L 29.084999084472656 -94.73100280761717 L 29.040000915527344 -95.82299804687499 L 28.93600082397461 -96.91000366210935 L 28.77199935913086 -97.9909973144531 L 28.707059860229492 -98.30400085449216 L 28.549999237060547 -99.06099700927732 L 28.270000457763672 -100.11699676513669 L 27.93199920654297 -101.15599822998044 L 27.538000106811523 -102.17500305175778 L 27.089000701904297 -103.17099761962888 L 26.586999893188477 -104.140998840332 L 26.031999588012695 -105.08200073242185 L 25.426000595092773 -105.99199676513669 L 25.04929542541504 -106.4960021972656 L 24.77199935913086 -106.86699676513669 L 24.070999145507812 -107.70500183105466 L 23.325000762939453 -108.50299835205075 L 22.53700065612793 -109.26000213623044 L 21.708999633789062 -109.97200012207028 L 20.841999053955078 -110.63800048828122 L 19.94099998474121 -111.25599670410153 L 19.007999420166016 -111.82399749755857 L 18.045000076293945 -112.3399963378906 L 17.05500030517578 -112.80200195312497 M 18.881999969482422 -62.083000183105455 L 18.659000396728516 -62.409999847412095 L 18.388999938964844 -62.70100021362303 L 18.079999923706055 -62.94800186157225 L 17.73699951171875 -63.14599990844725 L 17.368000030517578 -63.29000091552733 L 16.98200035095215 -63.37799835205077 L 16.586999893188477 -63.40800094604491 L 16.384000778198242 -63.39258193969725 L 16.191999435424805 -63.37799835205077 L 15.805999755859375 -63.29000091552733 L 15.437000274658203 -63.14599990844725 L 15.093999862670898 -62.94800186157225 L 14.784000396728516 -62.70100021362303 L 14.515000343322754 -62.409999847412095 L 14.291999816894531 -62.083000183105455 L 14.119999885559082 -61.72600173950194 L 14.031476020812988 -61.43999862670897 L 14.003000259399414 -61.34799957275389 L 13.944000244140625 -60.95600128173827 L 13.944000244140625 -60.560001373291 L 14.003000259399414 -60.16799926757811 L 14.119999885559082 -59.79000091552733 L 14.291999816894531 -59.43299865722655 L 14.515000343322754 -59.10599899291991 L 14.784000396728516 -58.81499862670897 L 15.093999862670898 -58.56900024414061 L 15.437000274658203 -58.36999893188475 L 15.805999755859375 -58.22600173950194 L 16.191999435424805 -58.138000488281236 L 16.384000778198242 -58.12341690063475 L 16.586999893188477 -58.10800170898436 L 16.98200035095215 -58.138000488281236 L 17.368000030517578 -58.22600173950194 L 17.73699951171875 -58.36999893188475 L 18.079999923706055 -58.56900024414061 L 18.388999938964844 -58.81499862670897 L 18.659000396728516 -59.10599899291991 L 18.881999969482422 -59.43299865722655 L 19.054000854492188 -59.79000091552733 L 19.170000076293945 -60.16799926757811 L 19.229000091552734 -60.560001373291 L 19.229000091552734 -60.95600128173827 L 19.170000076293945 -61.34799957275389 L 19.141767501831055 -61.43999862670897 L 19.054000854492188 -61.72600173950194 L 18.881999969482422 -62.083000183105455 M -15.119000434875488 -119.43299865722653 L -14.946999549865723 -119.79000091552732 L -14.829999923706055 -120.1679992675781 L -14.770999908447266 -120.55999755859372 L -14.770999908447266 -120.95600128173825 L -14.829999923706055 -121.34799957275388 L -14.946999549865723 -121.72599792480466 L -15.119000434875488 -122.08300018310544 L -15.342000007629395 -122.41000366210935 L -15.612000465393066 -122.70099639892575 L -15.835930824279785 -122.87999725341794 L -15.920999526977539 -122.94799804687497 L -16.263999938964844 -123.1460037231445 L -16.384000778198242 -123.19283294677732 L -16.632999420166016 -123.29000091552732 L -17.018999099731445 -123.37799835205075 L -17.413999557495117 -123.40799713134763 L -17.80900001525879 -123.37799835205075 L -18.19499969482422 -123.29000091552732 L -18.56399917602539 -123.1460037231445 L -18.906999588012695 -122.94799804687497 L -18.99234390258789 -122.87999725341794 L -19.216999053955078 -122.70099639892575 L -19.486000061035156 -122.41000366210935 L -19.708999633789062 -122.08300018310544 L -19.881000518798828 -121.72599792480466 L -19.99799919128418 -121.34799957275388 L -20.05699920654297 -120.95600128173825 L -20.05699920654297 -120.55999755859372 L -19.99799919128418 -120.1679992675781 L -19.881000518798828 -119.79000091552732 L -19.708999633789062 -119.43299865722653 L -19.486000061035156 -119.10600280761716 L -19.216999053955078 -118.81500244140622 L -19.177934646606445 -118.78399658203122 L -18.906999588012695 -118.5690002441406 L -18.56399917602539 -118.370002746582 L -18.19499969482422 -118.22599792480466 L -17.80900001525879 -118.13800048828122 L -17.413999557495117 -118.10800170898435 L -17.018999099731445 -118.13800048828122 L -16.632999420166016 -118.22599792480466 L -16.384000778198242 -118.32317352294919 L -16.263999938964844 -118.370002746582 L -15.920999526977539 -118.5690002441406 L -15.612000465393066 -118.81500244140622 L -15.342000007629395 -119.10600280761716 L -15.119000434875488 -119.43299865722653 M -43.11800003051758 -123.99199676513669 L -43.257999420166016 -124.18900299072263 L -43.41899871826172 -124.36900329589841 L -43.597999572753906 -124.52899932861325 L -43.79499816894531 -124.66899871826169 L -44.00600051879883 -124.78500366210935 L -44.229000091552734 -124.87799835205075 L -44.459999084472656 -124.9440002441406 L -44.698001861572266 -124.98500061035153 L -44.93899917602539 -124.99800109863278 L -45.055999755859375 -124.99169158935544 L -45.18000030517578 -124.98500061035153 L -45.41699981689453 -124.9440002441406 L -45.64899826049805 -124.87799835205075 L -45.87200164794922 -124.78500366210935 L -46.08300018310547 -124.66899871826169 L -46.27899932861328 -124.52899932861325 L -46.45899963378906 -124.36900329589841 L -46.619998931884766 -124.18900299072263 L -46.75899887084961 -123.99199676513669 L -46.875999450683594 -123.78099822998044 L -46.96799850463867 -123.55799865722653 L -47.03499984741211 -123.32700347900388 L -47.07500076293945 -123.088996887207 L -47.08714294433594 -122.87999725341794 L -47.0890007019043 -122.84799957275388 L -47.07500076293945 -122.60700225830075 L -47.03499984741211 -122.370002746582 L -46.96799850463867 -122.13800048828122 L -46.875999450683594 -121.91500091552732 L -46.75899887084961 -121.70400238037107 L -46.619998931884766 -121.50800323486325 L -46.45899963378906 -121.32800292968747 L -46.27899932861328 -121.1669998168945 L -46.08300018310547 -121.02799987792966 L -45.87200164794922 -120.91100311279294 L -45.64899826049805 -120.8190002441406 L -45.41699981689453 -120.75199890136716 L -45.18000030517578 -120.71199798583982 L -45.055999755859375 -120.70479583740232 L -44.93899917602539 -120.69799804687497 L -44.698001861572266 -120.71199798583982 L -44.459999084472656 -120.75199890136716 L -44.229000091552734 -120.8190002441406 L -44.00600051879883 -120.91100311279294 L -43.79499816894531 -121.02799987792966 L -43.597999572753906 -121.1669998168945 L -43.41899871826172 -121.32800292968747 L -43.257999420166016 -121.50800323486325 L -43.11800003051758 -121.70400238037107 L -43.00199890136719 -121.91500091552732 L -42.909000396728516 -122.13800048828122 L -42.84299850463867 -122.370002746582 L -42.801998138427734 -122.60700225830075 L -42.78900146484375 -122.84799957275388 L -42.79072570800781 -122.87999725341794 L -42.801998138427734 -123.088996887207 L -42.84299850463867 -123.32700347900388 L -42.909000396728516 -123.55799865722653 L -43.00199890136719 -123.78099822998044 L -43.11800003051758 -123.99199676513669 M -58.00199890136719 -123.78099822998044 L -58.11899948120117 -123.99199676513669 L -58.257999420166016 -124.18900299072263 L -58.41899871826172 -124.36900329589841 L -58.5989990234375 -124.52899932861325 L -58.79499816894531 -124.66899871826169 L -59.00600051879883 -124.78500366210935 L -59.229000091552734 -124.87799835205075 L -59.391998291015625 -124.92436981201169 L -59.40475845336914 -124.92800140380857 L -59.46099853515625 -124.9440002441406 L -59.69900131225586 -124.98500061035153 L -59.93899917602539 -124.99800109863278 L -60.18000030517578 -124.98500061035153 L -60.417999267578125 -124.9440002441406 L -60.4739990234375 -124.92800140380857 L -60.64899826049805 -124.87799835205075 L -60.87200164794922 -124.78500366210935 L -61.08300018310547 -124.66899871826169 L -61.279998779296875 -124.52899932861325 L -61.439998626708984 -124.38677978515622 L -61.459999084472656 -124.36900329589841 L -61.619998931884766 -124.18900299072263 L -61.7599983215332 -123.99199676513669 L -61.875999450683594 -123.78099822998044 L -61.96900177001953 -123.55799865722653 L -62.03499984741211 -123.32700347900388 L -62.07600021362305 -123.088996887207 L -62.08727264404297 -122.87999725341794 L -62.0890007019043 -122.84799957275388 L -62.07600021362305 -122.60700225830075 L -62.03499984741211 -122.370002746582 L -61.96900177001953 -122.13800048828122 L -61.875999450683594 -121.91500091552732 L -61.7599983215332 -121.70400238037107 L -61.619998931884766 -121.50800323486325 L -61.459999084472656 -121.32800292968747 L -61.439998626708984 -121.31011199951169 L -61.279998779296875 -121.1669998168945 L -61.08300018310547 -121.02799987792966 L -60.87200164794922 -120.91100311279294 L -60.680511474609375 -120.83200073242185 L -60.64899826049805 -120.8190002441406 L -60.417999267578125 -120.75199890136716 L -60.18000030517578 -120.71199798583982 L -59.93899917602539 -120.69799804687497 L -59.69900131225586 -120.71199798583982 L -59.46099853515625 -120.75199890136716 L -59.229000091552734 -120.8190002441406 L -59.19749069213867 -120.83200073242185 L -59.00600051879883 -120.91100311279294 L -58.79499816894531 -121.02799987792966 L -58.5989990234375 -121.1669998168945 L -58.41899871826172 -121.32800292968747 L -58.257999420166016 -121.50800323486325 L -58.11899948120117 -121.70400238037107 L -58.00199890136719 -121.91500091552732 L -57.90999984741211 -122.13800048828122 L -57.84299850463867 -122.370002746582 L -57.803001403808594 -122.60700225830075 L -57.78900146484375 -122.84799957275388 L -57.79085922241211 -122.87999725341794 L -57.803001403808594 -123.088996887207 L -57.84299850463867 -123.32700347900388 L -57.90999984741211 -123.55799865722653 L -58.00199890136719 -123.78099822998044 M -51.65999984741211 -88.67299652099608 L -51.67900085449219 -88.88999938964842 L -51.73500061035156 -89.09999847412108 L -51.82699966430664 -89.29799652099608 L -51.95199966430664 -89.47599792480467 L -52.10599899291992 -89.62999725341795 L -52.28499984741211 -89.75499725341795 L -52.481998443603516 -89.8470001220703 L -52.69300079345703 -89.90399932861327 L -52.90999984741211 -89.92299652099608 L -53.12699890136719 -89.90399932861327 L -53.24800109863281 -89.87115478515624 L -53.33700180053711 -89.8470001220703 L -53.53499984741211 -89.75499725341795 L -53.7130012512207 -89.62999725341795 L -53.867000579833984 -89.47599792480467 L -53.992000579833984 -89.29799652099608 L -54.08399963378906 -89.09999847412108 L -54.14099884033203 -88.88999938964842 L -54.15999984741211 -88.67299652099608 L -54.14099884033203 -88.45600128173827 L -54.08399963378906 -88.24500274658202 L -53.999473571777344 -88.06400299072264 L -53.992000579833984 -88.04799652099608 L -53.867000579833984 -87.86900329589842 L -53.7130012512207 -87.71499633789061 L -53.53499984741211 -87.58999633789061 L -53.33700180053711 -87.4980010986328 L -53.24800109863281 -87.47426605224608 L -53.12699890136719 -87.44200134277342 L -52.90999984741211 -87.42299652099608 L -52.69300079345703 -87.44200134277342 L -52.481998443603516 -87.4980010986328 L -52.28499984741211 -87.58999633789061 L -52.10599899291992 -87.71499633789061 L -51.95199966430664 -87.86900329589842 L -51.82699966430664 -88.04799652099608 L -51.81952667236328 -88.06400299072264 L -51.73500061035156 -88.24500274658202 L -51.67900085449219 -88.45600128173827 L -51.65999984741211 -88.67299652099608 M -56.992000579833984 -87.1439971923828 L -57.34400177001953 -87.03404998779295 L -57.452999114990234 -86.99999999999999 L -57.89400100708008 -86.80200195312499 L -58.30699920654297 -86.55200195312499 L -58.6870002746582 -86.25399780273436 L -58.92499923706055 -86.01599884033202 L -59.02899932861328 -85.91200256347655 L -59.32699966430664 -85.53199768066405 L -59.57699966430664 -85.11900329589842 L -59.775001525878906 -84.67800140380858 L -59.91899871826172 -84.21700286865233 L -59.96460723876953 -83.96800231933592 L -60.00600051879883 -83.7419967651367 L -60.03499984741211 -83.26000213623045 L -60.00600051879883 -82.77799987792967 L -59.91899871826172 -82.30300140380858 L -59.79936599731445 -81.9199981689453 L -59.775001525878906 -81.84200286865233 L -59.57699966430664 -81.40100097656249 L -59.32699966430664 -80.98799896240233 L -59.02899932861328 -80.60700225830077 L -58.6870002746582 -80.26599884033202 L -58.30699920654297 -79.96800231933592 L -57.89400100708008 -79.71800231933592 L -57.452999114990234 -79.51999664306639 L -57.34400177001953 -79.48595428466795 L -56.992000579833984 -79.37599945068358 L -56.516998291015625 -79.28900146484374 L -56.03499984741211 -79.26000213623045 L -55.553001403808594 -79.28900146484374 L -55.29600143432617 -79.33597564697264 L -55.07699966430664 -79.37599945068358 L -54.61600112915039 -79.51999664306639 L -54.17599868774414 -79.71800231933592 L -53.92097473144531 -79.8720016479492 L -53.762001037597656 -79.96800231933592 L -53.38199996948242 -80.26599884033202 L -53.24800109863281 -80.40000152587889 L -53.04100036621094 -80.60700225830077 L -52.74300003051758 -80.98799896240233 L -52.49300003051758 -81.40100097656249 L -52.29499816894531 -81.84200286865233 L -52.270633697509766 -81.9199981689453 L -52.1510009765625 -82.30300140380858 L -52.06399917602539 -82.77799987792967 L -52.03499984741211 -83.26000213623045 L -52.06399917602539 -83.7419967651367 L -52.1510009765625 -84.21700286865233 L -52.29499816894531 -84.67800140380858 L -52.49300003051758 -85.11900329589842 L -52.74300003051758 -85.53199768066405 L -53.04100036621094 -85.91200256347655 L -53.14469528198242 -86.01599884033202 L -53.20426940917969 -86.07575225830077 L -53.24800109863281 -86.11960601806639 L -53.38199996948242 -86.25399780273436 L -53.762001037597656 -86.55200195312499 L -54.17599868774414 -86.80200195312499 L -54.61600112915039 -86.99999999999999 L -55.07699966430664 -87.1439971923828 L -55.553001403808594 -87.23100280761717 L -56.03499984741211 -87.26000213623045 L -56.516998291015625 -87.23100280761717 L -56.992000579833984 -87.1439971923828 M -61.11000061035156 -82.83200073242186 L -61.05400085449219 -83.04299926757811 L -61.03499984741211 -83.26000213623045 L -61.05400085449219 -83.47699737548827 L -61.11000061035156 -83.68699645996092 L -61.20199966430664 -83.88500213623045 L -61.26028823852539 -83.96800231933592 L -61.32699966430664 -84.06300354003905 L -61.439998626708984 -84.17673492431639 L -61.48099899291992 -84.21800231933592 L -61.65999984741211 -84.34300231933592 L -61.856998443603516 -84.43499755859374 L -62.06800079345703 -84.49099731445311 L -62.28499984741211 -84.51000213623045 L -62.50199890136719 -84.49099731445311 L -62.71200180053711 -84.43499755859374 L -62.90999984741211 -84.34300231933592 L -63.0880012512207 -84.21800231933592 L -63.242000579833984 -84.06300354003905 L -63.308712005615234 -83.96800231933592 L -63.367000579833984 -83.88500213623045 L -63.459999084472656 -83.68699645996092 L -63.487998962402344 -83.58200073242186 L -63.51599884033203 -83.47699737548827 L -63.53499984741211 -83.26000213623045 L -63.51599884033203 -83.04299926757811 L -63.487998962402344 -82.93749999999999 L -63.459999084472656 -82.83200073242186 L -63.367000579833984 -82.63500213623045 L -63.242000579833984 -82.45700073242186 L -63.0880012512207 -82.30200195312499 L -62.90999984741211 -82.17700195312499 L -62.71200180053711 -82.08499908447264 L -62.50199890136719 -82.02899932861327 L -62.28499984741211 -82.01000213623045 L -62.06800079345703 -82.02899932861327 L -61.856998443603516 -82.08499908447264 L -61.65999984741211 -82.17700195312499 L -61.48099899291992 -82.30200195312499 L -61.439998626708984 -82.34326934814452 L -61.32699966430664 -82.45700073242186 L -61.20199966430664 -82.63500213623045 L -61.11000061035156 -82.83200073242186 M -53.12699890136719 -79.07800292968749 L -53.24800109863281 -79.0457305908203 L -53.33700180053711 -79.02200317382811 L -53.53499984741211 -78.93000030517577 L -53.7130012512207 -78.80500030517577 L -53.867000579833984 -78.65100097656249 L -53.992000579833984 -78.4720001220703 L -54.08399963378906 -78.27500152587889 L -54.14099884033203 -78.06400299072264 L -54.15999984741211 -77.8470001220703 L -54.15798568725586 -77.82399749755858 L -54.14099884033203 -77.62999725341795 L -54.08399963378906 -77.4199981689453 L -53.992000579833984 -77.2220001220703 L -53.867000579833984 -77.0439987182617 L -53.7130012512207 -76.88999938964842 L -53.53499984741211 -76.76499938964842 L -53.33700180053711 -76.67299652099608 L -53.24800109863281 -76.64884185791014 L -53.12699890136719 -76.61599731445311 L -52.90999984741211 -76.5970001220703 L -52.69300079345703 -76.61599731445311 L -52.481998443603516 -76.67299652099608 L -52.28499984741211 -76.76499938964842 L -52.10599899291992 -76.88999938964842 L -51.95199966430664 -77.0439987182617 L -51.82699966430664 -77.2220001220703 L -51.73500061035156 -77.4199981689453 L -51.67900085449219 -77.62999725341795 L -51.66201400756836 -77.82399749755858 L -51.65999984741211 -77.8470001220703 L -51.67900085449219 -78.06400299072264 L -51.73500061035156 -78.27500152587889 L -51.82699966430664 -78.4720001220703 L -51.95199966430664 -78.65100097656249 L -52.10599899291992 -78.80500030517577 L -52.28499984741211 -78.93000030517577 L -52.481998443603516 -79.02200317382811 L -52.69300079345703 -79.07800292968749 L -52.90999984741211 -79.0970001220703 L -53.12699890136719 -79.07800292968749 M -78.11900329589844 -123.99199676513669 L -78.25900268554688 -124.18900299072263 L -78.41899871826172 -124.36900329589841 L -78.5989990234375 -124.52899932861325 L -78.7959976196289 -124.66899871826169 L -79.00700378417969 -124.78500366210935 L -79.2300033569336 -124.87799835205075 L -79.40499877929688 -124.92800140380857 L -79.46099853515625 -124.9440002441406 L -79.6989974975586 -124.98500061035153 L -79.94000244140625 -124.99800109863278 L -80.18000030517578 -124.98500061035153 L -80.41799926757812 -124.9440002441406 L -80.4742431640625 -124.92800140380857 L -80.6500015258789 -124.87799835205075 L -80.87300109863281 -124.78500366210935 L -81.08399963378906 -124.66899871826169 L -81.27999877929688 -124.52899932861325 L -81.45999908447266 -124.36900329589841 L -81.62100219726562 -124.18900299072263 L -81.76000213623047 -123.99199676513669 L -81.87699890136719 -123.78099822998044 L -81.91999816894531 -123.67677307128903 L -81.96900177001953 -123.55799865722653 L -82.03600311279297 -123.32700347900388 L -82.07599639892578 -123.088996887207 L -82.08999633789062 -122.84799957275388 L -82.07599639892578 -122.60700225830075 L -82.03600311279297 -122.370002746582 L -81.96900177001953 -122.13800048828122 L -81.91999816894531 -122.01922607421872 L -81.87699890136719 -121.91500091552732 L -81.76000213623047 -121.70400238037107 L -81.62100219726562 -121.50800323486325 L -81.45999908447266 -121.32800292968747 L -81.27999877929688 -121.1669998168945 L -81.08399963378906 -121.02799987792966 L -80.87300109863281 -120.91100311279294 L -80.68151092529297 -120.83200073242185 L -80.6500015258789 -120.8190002441406 L -80.41799926757812 -120.75199890136716 L -80.18000030517578 -120.71199798583982 L -79.94000244140625 -120.69799804687497 L -79.6989974975586 -120.71199798583982 L -79.46099853515625 -120.75199890136716 L -79.2300033569336 -120.8190002441406 L -79.198486328125 -120.83200073242185 L -79.00700378417969 -120.91100311279294 L -78.7959976196289 -121.02799987792966 L -78.5989990234375 -121.1669998168945 L -78.41899871826172 -121.32800292968747 L -78.25900268554688 -121.50800323486325 L -78.11900329589844 -121.70400238037107 L -78.00299835205078 -121.91500091552732 L -77.91000366210938 -122.13800048828122 L -77.84400177001953 -122.370002746582 L -77.8239974975586 -122.48561096191403 L -77.8030014038086 -122.60700225830075 L -77.79000091552734 -122.84799957275388 L -77.7917251586914 -122.87999725341794 L -77.8030014038086 -123.088996887207 L -77.8239974975586 -123.21089935302732 L -77.84400177001953 -123.32700347900388 L -77.91000366210938 -123.55799865722653 L -78.00299835205078 -123.78099822998044 L -78.11900329589844 -123.99199676513669 M -79.46099853515625 -104.9440002441406 L -79.6989974975586 -104.98500061035153 L -79.94000244140625 -104.99800109863278 L -80.18000030517578 -104.98500061035153 L -80.41799926757812 -104.9440002441406 L -80.6500015258789 -104.87799835205075 L -80.87300109863281 -104.78500366210935 L -81.08399963378906 -104.66899871826169 L -81.27999877929688 -104.52899932861325 L -81.37112426757812 -104.44799804687497 L -81.45999908447266 -104.36900329589841 L -81.62100219726562 -104.18900299072263 L -81.76000213623047 -103.99199676513669 L -81.87699890136719 -103.78099822998044 L -81.91999816894531 -103.67677307128903 L -81.96900177001953 -103.55799865722653 L -82.03600311279297 -103.32700347900388 L -82.07599639892578 -103.088996887207 L -82.08999633789062 -102.84799957275388 L -82.07599639892578 -102.60700225830075 L -82.03600311279297 -102.370002746582 L -81.96900177001953 -102.13800048828122 L -81.91999816894531 -102.01922607421872 L -81.87699890136719 -101.91500091552732 L -81.76000213623047 -101.70400238037107 L -81.62100219726562 -101.50800323486325 L -81.45999908447266 -101.32800292968747 L -81.27999877929688 -101.1669998168945 L -81.08399963378906 -101.02799987792966 L -80.87300109863281 -100.91100311279294 L -80.6500015258789 -100.8190002441406 L -80.41799926757812 -100.75199890136716 L -80.18000030517578 -100.71199798583982 L -79.94000244140625 -100.69799804687497 L -79.87200164794922 -100.70195007324216 L -79.6989974975586 -100.71199798583982 L -79.46099853515625 -100.75199890136716 L -79.2300033569336 -100.8190002441406 L -79.00700378417969 -100.91100311279294 L -78.7959976196289 -101.02799987792966 L -78.5989990234375 -101.1669998168945 L -78.41899871826172 -101.32800292968747 L -78.25900268554688 -101.50800323486325 L -78.11900329589844 -101.70400238037107 L -78.00299835205078 -101.91500091552732 L -77.91000366210938 -102.13800048828122 L -77.84400177001953 -102.370002746582 L -77.83881378173828 -102.40000152587888 L -77.8239974975586 -102.48561096191403 L -77.8030014038086 -102.60700225830075 L -77.79000091552734 -102.84799957275388 L -77.8030014038086 -103.088996887207 L -77.8239974975586 -103.21089935302732 L -77.84400177001953 -103.32700347900388 L -77.91000366210938 -103.55799865722653 L -78.00299835205078 -103.78099822998044 L -78.11900329589844 -103.99199676513669 L -78.25900268554688 -104.18900299072263 L -78.41899871826172 -104.36900329589841 L -78.50787353515625 -104.44799804687497 L -78.5989990234375 -104.52899932861325 L -78.7959976196289 -104.66899871826169 L -79.00700378417969 -104.78500366210935 L -79.2300033569336 -104.87799835205075 L -79.46099853515625 -104.9440002441406 M -52.935001373291016 -62.435001373291 L -53.20800018310547 -62.41099929809569 L -53.472999572753906 -62.340000152587876 L -53.72200012207031 -62.223999023437486 L -53.946998596191406 -62.06700134277342 L -54.14099884033203 -61.872001647949205 L -54.29899978637695 -61.646999359130845 L -54.39582443237305 -61.43999862670897 L -54.415000915527344 -61.39899826049803 L -54.486000061035156 -61.132999420166 L -54.5099983215332 -60.86000061035155 L -54.486000061035156 -60.585998535156236 L -54.415000915527344 -60.3209991455078 L -54.29899978637695 -60.07199859619139 L -54.14099884033203 -59.84799957275389 L -53.946998596191406 -59.65299987792967 L -53.72200012207031 -59.495998382568345 L -53.472999572753906 -59.38000106811522 L -53.24800109863281 -59.31971740722655 L -53.20800018310547 -59.30899810791014 L -52.935001373291016 -59.284999847412095 L -52.6609992980957 -59.30899810791014 L -52.395999908447266 -59.38000106811522 L -52.14699935913086 -59.495998382568345 L -51.922000885009766 -59.65299987792967 L -51.72800064086914 -59.84799957275389 L -51.57099914550781 -60.07199859619139 L -51.45500183105469 -60.3209991455078 L -51.38399887084961 -60.585998535156236 L -51.36000061035156 -60.86000061035155 L -51.38399887084961 -61.132999420166 L -51.45500183105469 -61.39899826049803 L -51.474178314208984 -61.43999862670897 L -51.57099914550781 -61.646999359130845 L -51.72800064086914 -61.872001647949205 L -51.922000885009766 -62.06700134277342 L -52.14699935913086 -62.223999023437486 L -52.395999908447266 -62.340000152587876 L -52.6609992980957 -62.41099929809569 L -52.935001373291016 -62.435001373291 M -65.09200286865234 -56.74399948120116 L -65.53600311279297 -56.857570648193345 L -65.91300201416016 -56.953998565673814 L -66.74600219726562 -57.10400009155272 L -67.58899688720703 -57.194999694824205 L -68.43499755859375 -57.22499847412108 L -69.28199768066406 -57.194999694824205 L -70.1240005493164 -57.10400009155272 L -70.95700073242188 -56.953998565673814 L -71.77799987792969 -56.74399948120116 L -72.58200073242188 -56.47700119018553 L -73.36399841308594 -56.15299987792967 L -73.72799682617188 -55.97076034545897 L -74.12100219726562 -55.77399826049803 L -74.8499984741211 -55.34099960327147 L -75.5459976196289 -54.85800170898436 L -76.20500183105469 -54.326999664306626 L -76.82499694824219 -53.749999999999986 L -77.4020004272461 -53.13000106811522 L -77.93399810791016 -52.47000122070311 L -78.41699981689453 -51.77500152587889 L -78.8489990234375 -51.04600143432616 L -79.22799682617188 -50.289001464843736 L -79.552001953125 -49.506000518798814 L -79.67015075683594 -49.15200042724608 L -79.81999969482422 -48.70299911499022 L -80.02899932861328 -47.881999969482415 L -80.18000030517578 -47.048999786376946 L -80.2699966430664 -46.206001281738274 L -80.30000305175781 -45.360000610351555 L -80.2699966430664 -44.51399993896484 L -80.18000030517578 -43.671001434326165 L -80.02899932861328 -42.838001251220696 L -79.81999969482422 -42.01699829101562 L -79.552001953125 -41.21400070190429 L -79.4468994140625 -40.95999908447265 L -79.22799682617188 -40.43099975585937 L -78.8489990234375 -39.673999786376946 L -78.41699981689453 -38.94499969482421 L -77.93399810791016 -38.24999999999999 L -77.4020004272461 -37.59000015258788 L -76.82499694824219 -36.97000122070312 L -76.20500183105469 -36.39300155639648 L -75.5459976196289 -35.86199951171874 L -74.8499984741211 -35.37900161743163 L -74.12100219726562 -34.945999145507805 L -73.72799682617188 -34.74924087524413 L -73.36399841308594 -34.56700134277343 L -72.58200073242188 -34.24300003051757 L -71.77799987792969 -33.976001739501946 L -70.95700073242188 -33.765998840332024 L -70.1240005493164 -33.61600112915038 L -69.28199768066406 -33.5250015258789 L -68.43499755859375 -33.49499893188476 L -67.58899688720703 -33.5250015258789 L -66.74600219726562 -33.61600112915038 L -65.91300201416016 -33.765998840332024 L -65.53600311279297 -33.86243057250976 L -65.09200286865234 -33.976001739501946 L -64.28900146484375 -34.24300003051757 L -63.50600051879883 -34.56700134277343 L -62.749000549316406 -34.945999145507805 L -62.02000045776367 -35.37900161743163 L -61.32400131225586 -35.86199951171874 L -60.665000915527344 -36.39300155639648 L -60.04499816894531 -36.97000122070312 L -59.46799850463867 -37.59000015258788 L -58.93600082397461 -38.24999999999999 L -58.452999114990234 -38.94499969482421 L -58.020999908447266 -39.673999786376946 L -57.641998291015625 -40.43099975585937 L -57.42310333251953 -40.95999908447265 L -57.31800079345703 -41.21400070190429 L -57.04999923706055 -42.01699829101562 L -56.840999603271484 -42.838001251220696 L -56.691001892089844 -43.671001434326165 L -56.599998474121094 -44.51399993896484 L -56.56999969482422 -45.360000610351555 L -56.599998474121094 -46.206001281738274 L -56.691001892089844 -47.048999786376946 L -56.840999603271484 -47.881999969482415 L -57.04999923706055 -48.70299911499022 L -57.199851989746094 -49.15200042724608 L -57.31800079345703 -49.506000518798814 L -57.641998291015625 -50.289001464843736 L -58.020999908447266 -51.04600143432616 L -58.452999114990234 -51.77500152587889 L -58.93600082397461 -52.47000122070311 L -59.46799850463867 -53.13000106811522 L -60.04499816894531 -53.749999999999986 L -60.665000915527344 -54.326999664306626 L -61.32400131225586 -54.85800170898436 L -62.02000045776367 -55.34099960327147 L -62.749000549316406 -55.77399826049803 L -63.50600051879883 -56.15299987792967 L -64.28900146484375 -56.47700119018553 L -65.09200286865234 -56.74399948120116 M -51.38399887084961 -29.586000442504876 L -51.36000061035156 -29.860000610351555 L -51.38399887084961 -30.13299942016601 L -51.45500183105469 -30.399000167846673 L -51.57099914550781 -30.646999359130852 L -51.72800064086914 -30.87199974060058 L -51.922000885009766 -31.065999984741204 L -52.14699935913086 -31.224000930786126 L -52.395999908447266 -31.340000152587884 L -52.6609992980957 -31.410999298095696 L -52.935001373291016 -31.434999465942376 L -53.20800018310547 -31.410999298095696 L -53.24800109863281 -31.400283813476555 L -53.472999572753906 -31.340000152587884 L -53.72200012207031 -31.224000930786126 L -53.946998596191406 -31.065999984741204 L -54.14099884033203 -30.87199974060058 L -54.29899978637695 -30.646999359130852 L -54.415000915527344 -30.399000167846673 L -54.486000061035156 -30.13299942016601 L -54.5099983215332 -29.860000610351555 L -54.486000061035156 -29.586000442504876 L -54.415000915527344 -29.320999145507805 L -54.29899978637695 -29.072000503540032 L -54.14099884033203 -28.8479995727539 L -53.965904235839844 -28.67200088500976 L -53.946998596191406 -28.65299987792968 L -53.72200012207031 -28.496000289916985 L -53.472999572753906 -28.379999160766594 L -53.20800018310547 -28.309000015258782 L -52.935001373291016 -28.284999847412102 L -52.6609992980957 -28.309000015258782 L -52.395999908447266 -28.379999160766594 L -52.14699935913086 -28.496000289916985 L -51.922000885009766 -28.65299987792968 L -51.903099060058594 -28.67200088500976 L -51.72800064086914 -28.8479995727539 L -51.57099914550781 -29.072000503540032 L -51.45500183105469 -29.320999145507805 L -51.38399887084961 -29.586000442504876 M -85.29900360107422 -61.646999359130845 L -85.39582061767578 -61.43999862670897 L -85.41500091552734 -61.39899826049803 L -85.48600006103516 -61.132999420166 L -85.51000213623047 -60.86000061035155 L -85.48600006103516 -60.585998535156236 L -85.41500091552734 -60.3209991455078 L -85.29900360107422 -60.07199859619139 L -85.14199829101562 -59.84799957275389 L -84.947998046875 -59.65299987792967 L -84.7229995727539 -59.495998382568345 L -84.499755859375 -59.39199829101561 L -84.4739990234375 -59.38000106811522 L -84.20899963378906 -59.30899810791014 L -83.93499755859375 -59.284999847412095 L -83.66200256347656 -59.30899810791014 L -83.39700317382812 -59.38000106811522 L -83.3712387084961 -59.39199829101561 L -83.14800262451172 -59.495998382568345 L -82.9229965209961 -59.65299987792967 L -82.72899627685547 -59.84799957275389 L -82.57099914550781 -60.07199859619139 L -82.45500183105469 -60.3209991455078 L -82.38400268554688 -60.585998535156236 L -82.36000061035156 -60.86000061035155 L -82.38400268554688 -61.132999420166 L -82.45500183105469 -61.39899826049803 L -82.47417449951172 -61.43999862670897 L -82.57099914550781 -61.646999359130845 L -82.72899627685547 -61.872001647949205 L -82.9229965209961 -62.06700134277342 L -83.14800262451172 -62.223999023437486 L -83.39700317382812 -62.340000152587876 L -83.66200256347656 -62.41099929809569 L -83.93499755859375 -62.435001373291 L -84.20899963378906 -62.41099929809569 L -84.4739990234375 -62.340000152587876 L -84.7229995727539 -62.223999023437486 L -84.947998046875 -62.06700134277342 L -85.14199829101562 -61.872001647949205 L -85.29900360107422 -61.646999359130845 M -85.14199829101562 -30.87199974060058 L -85.24806213378906 -30.719999313354485 L -85.29900360107422 -30.646999359130852 L -85.41500091552734 -30.399000167846673 L -85.48600006103516 -30.13299942016601 L -85.51000213623047 -29.860000610351555 L -85.48600006103516 -29.586000442504876 L -85.41500091552734 -29.320999145507805 L -85.29900360107422 -29.072000503540032 L -85.14199829101562 -28.8479995727539 L -84.96690368652344 -28.67200088500976 L -84.947998046875 -28.65299987792968 L -84.7229995727539 -28.496000289916985 L -84.4739990234375 -28.379999160766594 L -84.20899963378906 -28.309000015258782 L -83.93499755859375 -28.284999847412102 L -83.66200256347656 -28.309000015258782 L -83.39700317382812 -28.379999160766594 L -83.14800262451172 -28.496000289916985 L -82.9229965209961 -28.65299987792968 L -82.90409851074219 -28.67200088500976 L -82.72899627685547 -28.8479995727539 L -82.57099914550781 -29.072000503540032 L -82.45500183105469 -29.320999145507805 L -82.38400268554688 -29.586000442504876 L -82.36000061035156 -29.860000610351555 L -82.38400268554688 -30.13299942016601 L -82.45500183105469 -30.399000167846673 L -82.57099914550781 -30.646999359130852 L -82.62226104736328 -30.719999313354485 L -82.72899627685547 -30.87199974060058 L -82.9229965209961 -31.065999984741204 L -83.14800262451172 -31.224000930786126 L -83.39700317382812 -31.340000152587884 L -83.66200256347656 -31.410999298095696 L -83.93499755859375 -31.434999465942376 L -84.20899963378906 -31.410999298095696 L -84.4739990234375 -31.340000152587884 L -84.7229995727539 -31.224000930786126 L -84.947998046875 -31.065999984741204 L -85.14199829101562 -30.87199974060058 z" fill="none" stroke="rgb(255,0,0)" stroke-width="0.001mm" />
</svg>