<?xml version="1.0" standalone="no"?>
<!DOCTYPE svg PUBLIC "-//W3C//DTD SVG 1.1//EN"
  "http://www.w3.org/Graphics/SVG/1.1/DTD/svg11.dtd">
<svg width="252mm" height="131.99999999999997mm" viewBox="-270 3.999999999999999 252 131.99999999999997" xmlns="http://www.w3.org/2000/svg" version="1.1">
	<title>svgOutput</title>
	<desc>made with tinkercad</desc>
<path d="M -57.5880012512207 7.646999835968016 L -26.7138671875 65.53600311279295 L -19.58799934387207 78.89700317382811 L -19 81.24999999999999 L -19 98.30400085449216 L -19 129.99999999999997 L -19.051000595092773 130.71200561523435 L -19.129507064819336 131.0720062255859 L -19.202999114990234 131.40899658203122 L -19.45199966430664 132.07699584960935 L -19.79400062561035 132.70300292968747 L -20.22100067138672 133.27400207519528 L -20.72599983215332 133.77900695800778 L -21.297000885009766 134.20599365234372 L -21.92300033569336 134.5480041503906 L -22.590999603271484 134.79699707031247 L -23.288000106811523 134.9490051269531 L -24 134.99999999999997 L -131.07200622558594 134.99999999999997 L -196.60800170898438 134.99999999999997 L -262.1440124511719 134.99999999999997 L -264 134.99999999999997 L -264.7120056152344 134.9490051269531 L -265.40899658203125 134.79699707031247 L -266.0769958496094 134.5480041503906 L -266.7030029296875 134.20599365234372 L -267.27398681640625 133.77900695800778 L -267.77899169921875 133.27400207519528 L -268.20599365234375 132.70300292968747 L -268.5480041503906 132.07699584960935 L -268.7969970703125 131.40899658203122 L -268.8704833984375 131.0720062255859 L -268.9490051269531 130.71200561523435 L -269 129.99999999999997 L -269 54.999999999999986 L -268.9469909667969 52.69100189208983 L -268.7869873046875 50.38700103759764 L -268.52099609375 48.091999053955064 L -268.14898681640625 45.812000274658196 L -267.6719970703125 43.55199813842773 L -267.09100341796875 41.31700134277343 L -266.4079895019531 39.110000610351555 L -265.6239929199219 36.93799972534179 L -264.739990234375 34.80400085449218 L -263.75799560546875 32.713001251220696 L -262.6809997558594 30.670000076293938 L -262.1440124511719 29.755723953247063 L -261.510986328125 28.677999496459954 L -260.25 26.74300003051757 L -258.9010009765625 24.86800003051757 L -257.4670104980469 23.05800056457519 L -255.9499969482422 21.315000534057614 L -254.35499572753906 19.64500045776367 L -252.68499755859375 18.049999237060543 L -250.94200134277344 16.53300094604492 L -249.1320037841797 15.098999977111813 L -247.2570037841797 13.749999999999996 L -245.75999450683594 12.774435997009274 L -245.32200622558594 12.489000320434567 L -243.3300018310547 11.319000244140623 L -241.28700256347656 10.241999626159666 L -239.1959991455078 9.260000228881834 L -237.06199645996094 8.376000404357908 L -234.88999938964844 7.592000007629393 L -232.68299865722656 6.908999919891356 L -230.447998046875 6.328000068664549 L -229.37600708007812 6.101741790771483 L -228.18800354003906 5.850999832153319 L -225.9080047607422 5.4790000915527335 L -223.61300659179688 5.212999820709228 L -221.3090057373047 5.052999973297118 L -219 4.999999999999999 L -196.60800170898438 4.999999999999999 L -131.07200622558594 4.999999999999999 L -114.68800354003906 4.999999999999999 L -98.30400085449219 4.999999999999999 L -81.91999816894531 4.999999999999999 L -65.53600311279297 4.999999999999999 L -62 4.999999999999999 L -61.32699966430664 5.046000003814696 L -60.665000915527344 5.181000232696532 L -60.02799987792969 5.405000209808349 L -59.426998138427734 5.712999820709228 L -58.87300109863281 6.098000049591063 L -58.375999450683594 6.554999828338621 L -57.94499969482422 7.073999881744383 L -57.5880012512207 7.646999835968016 M -97.69999694824219 12.748000144958493 L -98.11100006103516 12.557000160217282 L -98.30400085449219 12.505327224731442 L -98.5479965209961 12.439999580383297 L -99 12.39999961853027 L -99.4520034790039 12.439999580383297 L -99.88899993896484 12.557000160217282 L -100.30000305175781 12.748000144958493 L -100.6709976196289 13.008000373840328 L -100.99199676513672 13.329000473022457 L -101.25199890136719 13.699999809265133 L -101.44300079345703 14.111000061035153 L -101.56099700927734 14.54899978637695 L -101.5999984741211 14.999999999999996 L -101.56099700927734 15.451000213623043 L -101.44300079345703 15.88899993896484 L -101.25199890136719 16.299999237060543 L -101.19313049316406 16.38400077819824 L -100.99199676513672 16.670999526977536 L -100.6709976196289 16.99200057983398 L -100.30000305175781 17.252000808715817 L -99.88899993896484 17.443000793457028 L -99.4520034790039 17.55999946594238 L -99 17.600000381469723 L -98.5479965209961 17.55999946594238 L -98.30400085449219 17.49467277526855 L -98.11100006103516 17.443000793457028 L -97.69999694824219 17.252000808715817 L -97.3290023803711 16.99200057983398 L -97.00800323486328 16.670999526977536 L -96.80686950683594 16.38400077819824 L -96.74800109863281 16.299999237060543 L -96.55699920654297 15.88899993896484 L -96.43900299072266 15.451000213623043 L -96.4000015258789 14.999999999999996 L -96.43900299072266 14.54899978637695 L -96.55699920654297 14.111000061035153 L -96.74800109863281 13.699999809265133 L -97.00800323486328 13.329000473022457 L -97.3290023803711 13.008000373840328 L -97.69999694824219 12.748000144958493 M -97.69999694824219 32.748001098632805 L -98.11100006103516 32.55699920654296 L -98.30400085449219 32.50532913208007 L -98.5479965209961 32.43999862670898 L -99 32.4000015258789 L -99.4520034790039 32.43999862670898 L -99.88899993896484 32.55699920654296 L -100.30000305175781 32.748001098632805 L -100.32853698730469 32.76800155639648 L -100.6709976196289 33.00799942016601 L -100.99199676513672 33.32899856567382 L -101.25199890136719 33.700000762939446 L -101.44300079345703 34.11100006103515 L -101.56099700927734 34.548999786376946 L -101.5999984741211 34.99999999999999 L -101.56099700927734 35.45100021362304 L -101.44300079345703 35.88899993896484 L -101.25199890136719 36.29999923706054 L -100.99199676513672 36.671001434326165 L -100.79900360107422 36.86399841308593 L -100.6709976196289 36.99200057983398 L -100.30000305175781 37.25199890136718 L -99.88899993896484 37.443000793457024 L -99.4520034790039 37.56000137329101 L -99 37.59999847412109 L -98.5479965209961 37.56000137329101 L -98.30400085449219 37.494670867919915 L -98.11100006103516 37.443000793457024 L -97.69999694824219 37.25199890136718 L -97.3290023803711 36.99200057983398 L -97.00800323486328 36.671001434326165 L -96.74800109863281 36.29999923706054 L -96.55699920654297 35.88899993896484 L -96.43900299072266 35.45100021362304 L -96.4000015258789 34.99999999999999 L -96.43900299072266 34.548999786376946 L -96.55699920654297 34.11100006103515 L -96.74800109863281 33.700000762939446 L -97.00800323486328 33.32899856567382 L -97.3290023803711 33.00799942016601 L -97.67146301269531 32.76800155639648 L -97.69999694824219 32.748001098632805 M -31.75 124.99999999999997 L -31.784000396728516 124.60900115966794 L -31.88599967956543 124.23000335693357 L -32.05099868774414 123.87499999999997 L -32.2760009765625 123.55400085449216 L -32.55400085449219 123.27600097656247 L -32.768001556396484 123.12599945068357 L -32.875 123.05100250244138 L -33.22999954223633 122.88600158691403 L -33.25229263305664 122.87999725341794 L -33.60900115966797 122.78399658203122 L -34 122.74999999999997 L -34.39099884033203 122.78399658203122 L -34.74770736694336 122.87999725341794 L -34.77000045776367 122.88600158691403 L -35.125 123.05100250244138 L -35.44599914550781 123.27600097656247 L -35.7239990234375 123.55400085449216 L -35.94900131225586 123.87499999999997 L -36.11399841308594 124.23000335693357 L -36.215999603271484 124.60900115966794 L -36.24374008178711 124.92800140380857 L -36.25 124.99999999999997 L -36.215999603271484 125.390998840332 L -36.11399841308594 125.76999664306638 L -35.94900131225586 126.12499999999997 L -35.7239990234375 126.44599914550778 L -35.44599914550781 126.72399902343747 L -35.125 126.94899749755857 L -35.06690979003906 126.97599792480466 L -34.77000045776367 127.11399841308591 L -34.39099884033203 127.21600341796872 L -34 127.24999999999997 L -33.60900115966797 127.21600341796872 L -33.22999954223633 127.11399841308591 L -32.93309020996094 126.97599792480466 L -32.875 126.94899749755857 L -32.768001556396484 126.87400054931638 L -32.55400085449219 126.72399902343747 L -32.2760009765625 126.44599914550778 L -32.05099868774414 126.12499999999997 L -31.88599967956543 125.76999664306638 L -31.784000396728516 125.390998840332 L -31.75 124.99999999999997 M -97.2760009765625 96.44599914550778 L -97.0510025024414 96.12499999999997 L -96.88600158691406 95.76999664306639 L -96.78399658203125 95.39099884033202 L -96.75 94.99999999999999 L -96.78399658203125 94.60900115966795 L -96.88600158691406 94.23000335693358 L -97.0510025024414 93.87499999999999 L -97.2760009765625 93.55400085449217 L -97.55400085449219 93.27600097656249 L -97.875 93.05100250244139 L -98.2300033569336 92.88600158691405 L -98.30400085449219 92.86608123779295 L -98.60900115966797 92.78399658203124 L -99 92.74999999999999 L -99.39099884033203 92.78399658203124 L -99.7699966430664 92.88600158691405 L -100.125 93.05100250244139 L -100.44599914550781 93.27600097656249 L -100.7239990234375 93.55400085449217 L -100.9489974975586 93.87499999999999 L -101.10377502441406 94.20800018310545 L -101.11399841308594 94.23000335693358 L -101.21600341796875 94.60900115966795 L -101.25 94.99999999999999 L -101.21600341796875 95.39099884033202 L -101.11399841308594 95.76999664306639 L -100.9489974975586 96.12499999999997 L -100.7239990234375 96.44599914550778 L -100.44599914550781 96.72399902343747 L -100.125 96.94899749755857 L -99.7699966430664 97.11399841308591 L -99.39099884033203 97.21600341796872 L -99 97.24999999999997 L -98.60900115966797 97.21600341796872 L -98.30400085449219 97.133918762207 L -98.2300033569336 97.11399841308591 L -97.875 96.94899749755857 L -97.55400085449219 96.72399902343747 L -97.2760009765625 96.44599914550778 M -142.05099487304688 126.12499999999997 L -141.88600158691406 125.76999664306638 L -141.78399658203125 125.390998840332 L -141.75 124.99999999999997 L -141.78399658203125 124.60900115966794 L -141.88600158691406 124.23000335693357 L -142.05099487304688 123.87499999999997 L -142.2760009765625 123.55400085449216 L -142.5540008544922 123.27600097656247 L -142.875 123.05100250244138 L -143.22999572753906 122.88600158691403 L -143.25228881835938 122.87999725341794 L -143.60899353027344 122.78399658203122 L -144 122.74999999999997 L -144.39100646972656 122.78399658203122 L -144.74771118164062 122.87999725341794 L -144.77000427246094 122.88600158691403 L -145.125 123.05100250244138 L -145.4459991455078 123.27600097656247 L -145.7239990234375 123.55400085449216 L -145.94900512695312 123.87499999999997 L -146.11399841308594 124.23000335693357 L -146.21600341796875 124.60900115966794 L -146.25 124.99999999999997 L -146.21600341796875 125.390998840332 L -146.11399841308594 125.76999664306638 L -145.94900512695312 126.12499999999997 L -145.7239990234375 126.44599914550778 L -145.4459991455078 126.72399902343747 L -145.125 126.94899749755857 L -145.06690979003906 126.97599792480466 L -144.77000427246094 127.11399841308591 L -144.39100646972656 127.21600341796872 L -144 127.24999999999997 L -143.60899353027344 127.21600341796872 L -143.22999572753906 127.11399841308591 L -142.93309020996094 126.97599792480466 L -142.875 126.94899749755857 L -142.5540008544922 126.72399902343747 L -142.2760009765625 126.44599914550778 L -142.05099487304688 126.12499999999997 M -252.875 126.94899749755857 L -252.5540008544922 126.72399902343747 L -252.2760009765625 126.44599914550778 L -252.05099487304688 126.12499999999997 L -251.88600158691406 125.76999664306638 L -251.78399658203125 125.390998840332 L -251.75 124.99999999999997 L -251.78399658203125 124.60900115966794 L -251.88600158691406 124.23000335693357 L -252.05099487304688 123.87499999999997 L -252.2760009765625 123.55400085449216 L -252.5540008544922 123.27600097656247 L -252.875 123.05100250244138 L -253.22999572753906 122.88600158691403 L -253.25228881835938 122.87999725341794 L -253.60899353027344 122.78399658203122 L -254 122.74999999999997 L -254.39100646972656 122.78399658203122 L -254.74771118164062 122.87999725341794 L -254.77000427246094 122.88600158691403 L -255.125 123.05100250244138 L -255.4459991455078 123.27600097656247 L -255.7239990234375 123.55400085449216 L -255.94900512695312 123.87499999999997 L -256.114013671875 124.23000335693357 L -256.21600341796875 124.60900115966794 L -256.25 124.99999999999997 L -256.21600341796875 125.390998840332 L -256.114013671875 125.76999664306638 L -255.94900512695312 126.12499999999997 L -255.7239990234375 126.44599914550778 L -255.4459991455078 126.72399902343747 L -255.125 126.94899749755857 L -255.06690979003906 126.97599792480466 L -254.77000427246094 127.11399841308591 L -254.39100646972656 127.21600341796872 L -254 127.24999999999997 L -253.95199584960938 127.24582672119138 L -253.60899353027344 127.21600341796872 L -253.22999572753906 127.11399841308591 L -252.93309020996094 126.97599792480466 L -252.875 126.94899749755857 M -229.37600708007812 114.68800354003903 L -245.75999450683594 122.87999725341794 L -245.75999450683594 124.8963928222656 L -245.75999450683594 126.97599792480466 L -245.75999450683594 131.0720062255859 L -229.37600708007812 114.68800354003903 z" fill="none" stroke="rgb(255,0,0)" stroke-width="0.001mm" />
</svg>