<?xml version="1.0" standalone="no"?>
<!DOCTYPE svg PUBLIC "-//W3C//DTD SVG 1.1//EN"
  "http://www.w3.org/Graphics/SVG/1.1/DTD/svg11.dtd">
<svg width="120mm" height="66.74000000953673mm" viewBox="141 1.2599999904632564 120 66.74000000953673" xmlns="http://www.w3.org/2000/svg" version="1.1">
	<title>svgOutput</title>
	<desc>made with tinkercad</desc>
<path d="M 205.12049865722656 8.156499862670897 L 205.1349639892578 8.19200038909912 L 205.38299560546875 8.800499916076658 L 205.49349975585938 9.130000114440916 L 205.5574951171875 9.317999839782713 L 205.5618438720703 9.333814620971678 L 205.66299438476562 9.701499938964842 L 205.73800659179688 9.989999771118162 L 205.79600524902344 10.281999588012694 L 205.86749267578125 10.64750003814697 L 205.91200256347656 10.96749973297119 L 205.9510040283203 11.288000106811522 L 205.97900390625 11.80850028991699 L 206 12.255000114440914 L 206 16.38400077819824 L 206 32.76800155639648 L 206 49.73600006103514 L 201 49.73600006103514 L 201 55.73899841308592 L 206 55.7480010986328 L 206 61.736999511718736 L 201 61.736999511718736 L 196.60800170898438 61.736999511718736 L 191 61.736999511718736 L 183.36199951171875 61.736999511718736 L 182.25900268554688 63.24499893188475 L 180.91600036621094 64.54299926757811 L 180.2239990234375 65.01374053955077 L 179.45626831054688 65.53600311279295 L 179.3732147216797 65.59249114990233 L 179.37100219726562 65.59400177001952 L 178.52049255371094 65.98049926757811 L 177.6699981689453 66.36750030517577 L 176.76649475097656 66.60449981689452 L 175.86300659179688 66.84100341796874 L 174.00100708007812 66.99999999999999 L 172.13900756835938 66.84100341796874 L 171.23500061035156 66.60449981689452 L 170.33360290527344 66.36817932128905 L 170.33099365234375 66.36750030517577 L 169.4810028076172 65.98049926757811 L 168.63099670410156 65.59400177001952 L 168.54574584960938 65.53600311279295 L 167.08599853515625 64.54299926757811 L 165.7429962158203 63.24499893188475 L 164.63900756835938 61.736999511718736 L 164.1826629638672 61.736938476562486 L 163.83999633789062 61.7368927001953 L 162.07455444335938 61.736660003662095 L 162.00372314453125 61.736652374267564 L 162.00363159179688 61.736652374267564 L 147.0019989013672 61.73466110229491 L 142 61.734001159667955 L 142.00100708007812 58.73350143432616 L 142.0019989013672 55.73350143432616 L 144.5019989013672 55.73649978637694 L 147.0019989013672 55.73899841308592 L 147.0019989013672 55.71711349487303 L 147.0019989013672 49.73600006103514 L 142.0019989013672 49.73600006103514 L 142.0019989013672 32.76800155639648 L 142.0019989013672 16.38400077819824 L 142.0019989013672 12.255000114440914 L 142.0084991455078 12.006999969482418 L 142.01649475097656 11.73400020599365 L 142.03750610351562 11.461500167846678 L 142.0594940185547 11.189000129699705 L 142.08749389648438 10.967000007629393 L 142.11300659179688 10.77000045776367 L 142.14649963378906 10.574000358581541 L 142.19500732421875 10.30500030517578 L 142.23599243164062 10.110500335693358 L 142.28550720214844 9.89299964904785 L 142.33450317382812 9.700499534606932 L 142.3874969482422 9.508500099182127 L 142.46749877929688 9.247500419616697 L 142.52749633789062 9.05850028991699 L 142.5955047607422 8.871500015258787 L 142.67100524902344 8.661000251770018 L 142.6822967529297 8.632809638977049 L 142.72650146484375 8.52250003814697 L 142.83200073242188 8.270500183105467 L 142.8665008544922 8.19200038909912 L 142.89199829101562 8.133999824523924 L 142.95550537109375 7.999499797821043 L 143.05149841308594 7.7975001335144025 L 143.1195068359375 7.664500236511229 L 143.21249389648438 7.48899984359741 L 143.28399658203125 7.3585000038146955 L 143.38400268554688 7.186500072479246 L 143.4600067138672 7.058000087738035 L 143.5395050048828 6.932000160217283 L 143.64649963378906 6.764500141143797 L 143.72950744628906 6.640999794006346 L 143.84249877929688 6.478000164031981 L 143.95899963378906 6.316999912261961 L 144.07899475097656 6.157999992370604 L 144.20199584960938 6.001500129699705 L 144.29550170898438 5.885499954223632 L 144.42449951171875 5.734499931335448 L 144.52200317382812 5.622000217437743 L 144.72650146484375 5.405000209808349 L 144.8614959716797 5.258999824523925 L 144.8891143798828 5.232445716857909 L 145.1479949951172 4.983500003814696 L 145.36500549316406 4.778999805450439 L 145.61349487304688 4.572999954223632 L 145.8719940185547 4.360000133514403 L 146.12350463867188 4.177499771118163 L 146.49899291992188 3.9124999046325675 L 146.80299377441406 3.7195000648498526 L 147.1909942626953 3.496500015258788 L 147.4530029296875 3.3545000553131095 L 147.45599365234375 3.353078603744506 L 147.7675018310547 3.2054998874664298 L 147.99200439453125 3.0989999771118155 L 147.99415588378906 3.0981149673461905 L 148.26800537109375 2.986000061035156 L 148.5449981689453 2.8764998912811275 L 148.875 2.7664999961853023 L 149.35000610351562 2.6205000877380367 L 149.7115020751953 2.530499935150146 L 149.85650634765625 2.4955000877380367 L 150.1490020751953 2.4395000934600826 L 150.56500244140625 2.3650000095367427 L 150.82400512695312 2.3324999809265132 L 151.0959930419922 2.3050000667572017 L 151.38253784179688 2.2841067314147945 L 151.47999572753906 2.276999950408935 L 151.62899780273438 2.274499893188476 L 152.00100708007812 2.2599999904632564 L 155.6479949951172 2.2599999904632564 L 156.73179626464844 2.2599999904632564 L 157.1862030029297 2.2599999904632564 L 157.9202423095703 2.2599999904632564 L 159.30702209472656 2.2599999904632564 L 159.68353271484375 2.2599999904632564 L 162.29415893554688 2.2599999904632564 L 163.83999633789062 2.2599999904632564 L 180.2239990234375 2.2599999904632564 L 188.41600036621094 2.2599999904632564 L 196 2.2599999904632564 L 196.29800415039062 2.2690000534057613 L 196.60800170898438 2.2801351547241206 L 196.64599609375 2.281500101089477 L 196.99249267578125 2.3145000934600826 L 197.28900146484375 2.345000028610229 L 197.58299255371094 2.39299988746643 L 197.87750244140625 2.4389998912811275 L 197.91357421875 2.44697093963623 L 198.14450073242188 2.4979999065399165 L 198.50799560546875 2.5810000896453853 L 198.7949981689453 2.661499977111816 L 199.00950622558594 2.723999977111816 L 199.31399536132812 2.8310000896453853 L 199.7794952392578 3.005000114440917 L 199.9604949951172 3.0875000953674308 L 200.3260040283203 3.243999958038329 L 200.47909545898438 3.3238797187805167 L 200.5904998779297 3.381999969482421 L 200.70399475097656 3.441936254501342 L 200.9199981689453 3.555999994277953 L 201.13250732421875 3.68499994277954 L 201.38900756835938 3.8364999294280997 L 201.4445037841797 3.874401569366454 L 201.63499450683594 4.004499912261962 L 201.86099243164062 4.15850019454956 L 201.865234375 4.161727905273437 L 202.09800720214844 4.339499950408935 L 202.37249755859375 4.552499771118163 L 202.5590057373047 4.716499805450439 L 202.82049560546875 4.946000099182128 L 202.8246612548828 4.950112342834472 L 203.0679931640625 5.190499782562255 L 203.23123168945312 5.353337764739989 L 203.2790069580078 5.401000022888183 L 203.50750732421875 5.6630001068115225 L 203.67300415039062 5.84849977493286 L 203.9759979248047 6.242000102996824 L 204.1133270263672 6.420452594757078 L 204.17300415039062 6.498000144958494 L 204.42950439453125 6.89400005340576 L 204.5399932861328 7.059500217437742 L 204.739501953125 7.402999877929686 L 204.8000030517578 7.511774539947508 L 204.83599853515625 7.576499938964842 L 204.96800231933594 7.8435001373291 L 205.12049865722656 8.156499862670897 M 199.46600341796875 26.439500808715813 L 199.4320068359375 26.18050003051757 L 199.43190002441406 26.180267333984368 L 199.33200073242188 25.938999176025384 L 199.23199462890625 25.697999954223626 L 198.91400146484375 25.28400039672851 L 198.5 24.96699905395507 L 198.01800537109375 24.76700019836425 L 197.5 24.69899940490722 L 196.98300170898438 24.76700019836425 L 196.60800170898438 24.92227935791015 L 196.5 24.96699905395507 L 196.08599853515625 25.28400039672851 L 195.76800537109375 25.697999954223626 L 195.66799926757812 25.938999176025384 L 195.5679931640625 26.18050003051757 L 195.53399658203125 26.439500808715813 L 195.5 26.697999954223626 L 195.50003051757812 26.698249816894524 L 195.5679931640625 27.215000152587884 L 195.76800537109375 27.697000503540032 L 196.08599853515625 28.11100006103515 L 196.5 28.42900085449218 L 196.60800170898438 28.473720550537102 L 196.98300170898438 28.628999710083 L 197.5 28.697000503540032 L 198.01800537109375 28.628999710083 L 198.5 28.42900085449218 L 198.91400146484375 28.11100006103515 L 199.23199462890625 27.697000503540032 L 199.4320068359375 27.215000152587884 L 199.5 26.697999954223626 L 199.46600341796875 26.439500808715813 M 192.55799865722656 12.119000434875485 L 192.51199340820312 12.149175643920895 L 192.49549865722656 12.159999847412106 L 192.4692840576172 12.181533813476559 L 192.36099243164062 12.270500183105465 L 192.3424072265625 12.28800010681152 L 192.2165069580078 12.406499862670895 L 192.05149841308594 12.59949970245361 L 191.95849609375 12.71599960327148 L 191.85699462890625 12.88650035858154 L 191.73699951171875 13.095999717712399 L 191.66749572753906 13.268500328063961 L 191.61712646484375 13.405447959899899 L 191.61599731445312 13.408499717712399 L 191.5679931640625 13.626500129699703 L 191.5319061279297 13.788920402526852 L 191.52499389648438 13.819999694824215 L 191.51499938964844 14.005999565124508 L 191.50250244140625 14.16650009155273 L 191.50999450683594 14.31550025939941 L 191.52099609375 14.463999748229977 L 191.54600524902344 14.610500335693356 L 191.56350708007812 14.708000183105465 L 191.60549926757812 14.850999832153317 L 191.65074157714844 14.998278617858883 L 191.656494140625 15.017000198364254 L 191.7010040283203 15.119500160217282 L 191.75799560546875 15.256999969482418 L 191.84500122070312 15.407500267028805 L 191.94650268554688 15.578000068664547 L 192.0540008544922 15.71450042724609 L 192.14700317382812 15.831000328063961 L 192.2165069580078 15.90200042724609 L 192.31399536132812 15.997500419616696 L 192.41900634765625 16.084999084472653 L 192.51199340820312 16.15461158752441 L 192.58799743652344 16.211500167846676 L 192.76600646972656 16.323999404907223 L 192.86349487304688 16.378499984741207 L 192.8776397705078 16.38400077819824 L 193.10650634765625 16.472999572753903 L 193.27850341796875 16.54350090026855 L 193.4774932861328 16.59099960327148 L 193.6230010986328 16.621999740600582 L 193.75900268554688 16.635000228881832 L 193.95050048828125 16.650999069213864 L 193.9898681640625 16.650999069213864 L 194.0500030517578 16.650999069213864 L 194.18600463867188 16.638000488281246 L 194.3575897216797 16.626626968383786 L 194.3594970703125 16.626499176025387 L 194.5294952392578 16.590000152587887 L 194.6750030517578 16.559000015258786 L 194.8155059814453 16.50900077819824 L 194.93350219726562 16.47050094604492 L 194.96182250976562 16.45692634582519 L 195.10150146484375 16.389999389648434 L 195.11325073242188 16.38400077819824 L 195.2572479248047 16.310480117797848 L 195.26699829101562 16.305500030517575 L 195.36000061035156 16.24349975585937 L 195.4949951171875 16.1555004119873 L 195.58200073242188 16.084999084472653 L 195.68649291992188 15.997500419616696 L 195.7834930419922 15.90200042724609 L 195.91700744628906 15.754500389099118 L 195.98800659179688 15.668000221252438 L 196.06500244140625 15.555500030517575 L 196.13975524902344 15.445071220397946 L 196.14149475097656 15.442500114440914 L 196.2154998779297 15.29899978637695 L 196.27850341796875 15.17749977111816 L 196.33200073242188 15.038999557495114 L 196.3885040283203 14.88799953460693 L 196.427001953125 14.730999946594235 L 196.47650146484375 14.45049953460693 L 196.4860076904297 14.33600044250488 L 196.4969940185547 14.203499794006344 L 196.49600219726562 14.054499626159664 L 196.4759979248047 13.863499641418453 L 196.45950317382812 13.715499877929684 L 196.4340057373047 13.607000350952145 L 196.39500427246094 13.444000244140621 L 196.3415069580078 13.305500030517575 L 196.24673461914062 13.069046974182125 L 196.23550415039062 13.041000366210934 L 196.156005859375 12.914999961853024 L 196.02699279785156 12.696000099182125 L 195.9344940185547 12.579500198364254 L 195.85299682617188 12.477499961853024 L 195.7834930419922 12.406999588012692 L 195.69708251953125 12.325364112854 L 195.65753173828125 12.28800010681152 L 195.63900756835938 12.270500183105465 L 195.5590057373047 12.211500167846676 L 195.4250030517578 12.100999832153317 L 195.34100341796875 12.048500061035153 L 195.21400451660156 11.970000267028807 L 195.1020050048828 11.916500091552733 L 194.94500732421875 11.841500282287596 L 194.94496154785156 11.841488838195799 L 194.82749938964844 11.801500320434569 L 194.66299438476562 11.74499988555908 L 194.56649780273438 11.721500396728514 L 194.55999755859375 11.720020294189451 L 194.49400329589844 11.704999923706053 L 194.42050170898438 11.69200038909912 L 194.32249450683594 11.676500320434569 L 194.24850463867188 11.668999671936033 L 194.14950561523438 11.661000251770018 L 194.0500030517578 11.656999588012694 L 193.95050048828125 11.656999588012694 L 193.85150146484375 11.661000251770018 L 193.75250244140625 11.668999671936033 L 193.64149475097656 11.682999610900877 L 193.5675048828125 11.69349956512451 L 193.4949951171875 11.709500312805174 L 193.36199951171875 11.739500045776365 L 193.26649475097656 11.76650047302246 L 193.1719970703125 11.797499656677244 L 193.07850646972656 11.83250045776367 L 192.95350646972656 11.887499809265135 L 192.86349487304688 11.929499626159666 L 192.76600646972656 11.98400020599365 L 192.67999267578125 12.032999992370602 L 192.55799865722656 12.119000434875485 M 155.84849548339844 15.824999809265133 L 155.97584533691406 15.682705879211422 L 155.98899841308594 15.668000221252438 L 155.99266052246094 15.662116050720211 L 156.1199951171875 15.457500457763668 L 156.2205047607422 15.300499916076657 L 156.2884979248047 15.154500007629391 L 156.36500549316406 14.958000183105465 L 156.43699645996094 14.682499885559078 L 156.4705047607422 14.537500381469723 L 156.4864959716797 14.40200042724609 L 156.48849487304688 14.303000450134274 L 156.5 14.104499816894528 L 156.494384765625 14.011462211608883 L 156.49400329589844 14.005000114440914 L 156.47900390625 13.831999778747555 L 156.45291137695312 13.67817115783691 L 156.4499969482422 13.661000251770016 L 156.42999267578125 13.588999748229977 L 156.37449645996094 13.373000144958493 L 156.32601928710938 13.246337890624996 L 156.3125 13.21100044250488 L 156.27850341796875 13.144499778747555 L 156.1817169189453 12.937099456787106 L 156.17349243164062 12.919500350952145 L 156.0970001220703 12.806500434875485 L 155.98899841308594 12.64000034332275 L 155.91799926757812 12.55350017547607 L 155.85400390625 12.477499961853024 L 155.7845001220703 12.406499862670895 L 155.71499633789062 12.33600044250488 L 155.6479949951172 12.277486801147457 L 155.63999938964844 12.270500183105465 L 155.53550720214844 12.182499885559078 L 155.45550537109375 12.12349987030029 L 155.36349487304688 12.060000419616696 L 155.2794952392578 12.007499694824215 L 155.10299682617188 11.916500091552733 L 154.98541259765625 11.859896659851072 L 154.968994140625 11.852000236511229 L 154.82850646972656 11.803500175476072 L 154.68800354003906 11.753000259399412 L 154.55499267578125 11.722999572753904 L 154.3975067138672 11.687999725341795 L 154.1374969482422 11.671999931335447 L 153.90199279785156 11.659000396728514 L 153.76600646972656 11.671999931335447 L 153.56900024414062 11.69449996948242 L 153.45950317382812 11.715999603271483 L 153.26849365234375 11.770500183105467 L 153.12600708007812 11.814999580383299 L 153.00100708007812 11.86999988555908 L 152.84249877929688 11.94099998474121 L 152.6529998779297 12.059000015258786 L 152.52650451660156 12.137499809265133 L 152.525146484375 12.138617515563961 L 152.39199829101562 12.248000144958493 L 152.34426879882812 12.28800010681152 L 152.28700256347656 12.33600044250488 L 152.18600463867188 12.444999694824215 L 152.05299377441406 12.592000007629391 L 151.9759979248047 12.704999923706051 L 151.94317626953125 12.748641967773434 L 151.88650512695312 12.82400035858154 L 151.86798095703125 12.863517761230465 L 151.77099609375 13.070500373840328 L 151.67149353027344 13.256500244140621 L 151.62399291992188 13.384499549865719 L 151.5679931640625 13.626000404357907 L 151.552001953125 13.705347061157223 L 151.5189971923828 13.869000434875485 L 151.5084991455078 14.042499542236325 L 151.510498046875 14.303000450134274 L 151.53550720214844 14.449500083923336 L 151.552001953125 14.56991100311279 L 151.57749938964844 14.755999565124508 L 151.59994506835938 14.8271369934082 L 151.6334991455078 14.933500289916989 L 151.6790008544922 15.07549953460693 L 151.72950744628906 15.189000129699703 L 151.8175048828125 15.366999626159664 L 151.91549682617188 15.52499961853027 L 151.99200439453125 15.63799953460693 L 152.1125030517578 15.779999732971188 L 152.21800231933594 15.90200042724609 L 152.33749389648438 16.010000228881832 L 152.44700622558594 16.110500335693356 L 152.45457458496094 16.11581230163574 L 152.5590057373047 16.188999176025387 L 152.68099975585938 16.27499961853027 L 152.6839599609375 16.27658653259277 L 152.822998046875 16.350999832153317 L 152.88735961914062 16.38400077819824 L 152.99949645996094 16.441499710083004 L 153.17449951171875 16.504999160766598 L 153.31500244140625 16.555000305175778 L 153.447998046875 16.584999084472653 L 153.60549926757812 16.620000839233395 L 153.76600646972656 16.635999679565426 L 153.95150756835938 16.649000167846676 L 154.10049438476562 16.646999359130856 L 154.34750366210938 16.623500823974606 L 154.4949951171875 16.603000640869137 L 154.63900756835938 16.565000534057614 L 154.75950622558594 16.534999847412106 L 154.77166748046875 16.529989242553707 L 154.96600341796875 16.45000076293945 L 155.10450744628906 16.39500045776367 L 155.12298583984375 16.38400077819824 L 155.3179931640625 16.267999649047848 L 155.4965057373047 16.1555004119873 L 155.61050415039062 16.05999946594238 L 155.6479949951172 16.028009414672848 L 155.73300170898438 15.955499649047848 L 155.84849548339844 15.824999809265133 M 171.5919952392578 55.1230010986328 L 171.6959991455078 55.43249893188475 L 171.87649536132812 55.70449829101561 L 172.03199768066406 55.93839645385741 L 172.0570068359375 55.97600173950194 L 172.30174255371094 56.1917152404785 L 172.54600524902344 56.40750122070311 L 172.54730224609375 56.408145904541 L 172.8385009765625 56.55300140380858 L 173.13099670410156 56.69800186157225 L 173.77000427246094 56.826999664306626 L 174.4219970703125 56.78599929809569 L 174.7310028076172 56.68249893188475 L 175.03846740722656 56.57901763916014 L 175.0399932861328 56.57849884033202 L 175.31199645996094 56.39799880981444 L 175.58399963378906 56.21799850463866 L 176.01600646972656 55.72900009155272 L 176.16099548339844 55.43700027465819 L 176.3058319091797 55.14484405517577 L 176.30599975585938 55.14450073242186 L 176.37049865722656 54.82450103759764 L 176.43499755859375 54.50500106811522 L 176.39500427246094 53.85400009155272 L 176.1910400390625 53.2480010986328 L 176.18699645996094 53.23600006103514 L 175.8260040283203 52.69200134277342 L 175.33700561523438 52.26100158691405 L 175.04449462890625 52.116001129150376 L 174.7519989013672 51.97050094604491 L 174.7502899169922 51.970153808593736 L 174.4320068359375 51.90549850463866 L 174.11199951171875 51.84099960327147 L 173.46099853515625 51.88199996948241 L 172.8419952392578 52.090000152587876 L 172.57049560546875 52.27000045776366 L 172.2989959716797 52.450500488281236 L 172.03199768066406 52.75272750854491 L 171.86756896972656 52.93885803222655 L 171.86700439453125 52.93949890136717 L 171.7220001220703 53.2319984436035 L 171.57699584960938 53.52399826049803 L 171.44700622558594 54.162998199462876 L 171.4879608154297 54.81338500976561 L 171.48800659179688 54.813999176025376 L 171.5919952392578 55.1230010986328 M 260 10.124500274658201 L 259.99420166015625 16.10600090026855 L 259.99420166015625 16.108539581298825 L 259.99420166015625 16.11000061035156 L 259.99395751953125 16.38400077819824 L 259.98699951171875 23.56349945068359 L 259.98602294921875 24.57600021362304 L 259.97808837890625 32.76800155639648 L 259.97412109375 36.86399841308593 L 259.9739990234375 37.002998352050774 L 259.9739990234375 37.00300979614257 L 259.9674987792969 37.111499786376946 L 259.9595031738281 37.230998992919915 L 259.9389953613281 37.34899902343749 L 259.92022705078125 37.45446777343749 L 259.9179992675781 37.46699905395507 L 259.87548828125 37.60200119018554 L 259.84698486328125 37.695999145507805 L 259.7795104980469 37.84450149536132 L 259.7594909667969 37.88800048828124 L 259.7308044433594 37.9504051208496 L 259.7250061035156 37.963001251220696 L 259.65399169921875 38.072498321533196 L 259.5874938964844 38.17824554443359 L 259.5845031738281 38.182998657226555 L 259.50750732421875 38.2750015258789 L 259.42401123046875 38.37599945068359 L 259.32000732421875 38.47150039672851 L 259.23150634765625 38.55250167846679 L 259.1155090332031 38.633499145507805 L 259.0719909667969 38.664192199707024 L 259.0085144042969 38.708999633789055 L 259.0046691894531 38.710891723632805 L 258.8525085449219 38.785999298095696 L 258.6654968261719 38.8740005493164 L 258.5715026855469 38.90250015258788 L 258.5395202636719 38.91199874877929 L 258.4150085449219 38.94900131225585 L 258.2969970703125 38.96950149536132 L 258.177001953125 38.97750091552734 L 258.0480041503906 38.99127578735351 L 257.97100830078125 38.999500274658196 L 257.84893798828125 38.999370574951165 L 253.95199584960938 38.995246887207024 L 249.47000122070312 38.99050140380859 L 249.47622680664062 32.76800155639648 L 249.48033142089844 28.67200088500976 L 249.4810028076172 27.99950218200683 L 247.97999572753906 27.998502731323235 L 247.9793243408203 28.67200088500976 L 247.9752197265625 32.76800155639648 L 247.968994140625 38.98891448974609 L 247.968994140625 38.98950195312499 L 245.75999450683594 38.98741912841796 L 242.66299438476562 38.98450088500976 L 241.22792053222656 32.76800155639648 L 239.3367919921875 24.57600021362304 L 238.3912353515625 20.479999542236325 L 237.5679931640625 16.913879394531246 L 237.4456787109375 16.38400077819824 L 237.38243103027344 16.11000061035156 L 237.38211059570312 16.108661651611325 L 237.38153076171875 16.106119155883786 L 237.5679931640625 16.106090545654293 L 238.15667724609375 16.10600090026855 L 239.61599731445312 16.10600090026855 L 239.99755859375 16.10600090026855 L 239.999267578125 16.10600090026855 L 239.999267578125 15.359999656677243 L 239.999267578125 14.504933357238766 L 239.999267578125 14.33600044250488 L 239.999267578125 13.82400035858154 L 239.99928283691406 13.3120002746582 L 239.99928283691406 12.28800010681152 L 239.99929809570312 10.106810569763182 L 241.66400146484375 10.108283042907713 L 245 10.111232757568358 L 245 12.28800010681152 L 245 16.10600090026855 L 245.75999450683594 16.10600090026855 L 253.95199584960938 16.10600090026855 L 255 16.10600090026855 L 255 10.120078086853026 L 260 10.124500274658201 M 231.38270568847656 11.106809616088865 L 231.38270568847656 12.28800010681152 L 231.38272094726562 14.33600044250488 L 231.38272094726562 14.847999572753903 L 231.3827362060547 15.359999656677243 L 231.3827362060547 15.504933357238766 L 231.3827362060547 15.871999740600582 L 231.3827362060547 16.38400077819824 L 231.3827362060547 17.10600090026855 L 231.3844451904297 17.10600090026855 L 231.4239959716797 17.10600090026855 L 233.22523498535156 17.10600090026855 L 233.4720001220703 17.106037139892575 L 233.9994659423828 17.106119155883786 L 233.99888610839844 17.108663558959957 L 233.9985809326172 17.11000061035156 L 233.4720001220703 19.391031265258786 L 233.22061157226562 20.479999542236325 L 232.27505493164062 24.57600021362304 L 230.38392639160156 32.76800155639648 L 229.37600708007812 37.134162902832024 L 228.71800231933594 39.98450088500976 L 223.41200256347656 39.98950195312499 L 223.41200256347656 39.98891448974609 L 223.40476989746094 32.76800155639648 L 223.4010009765625 28.998502731323235 L 221.89999389648438 28.99950218200683 L 221.90377807617188 32.76800155639648 L 221.91099548339844 39.99050140380859 L 221.1840057373047 39.99127197265624 L 217.08799743652344 39.99560546874999 L 213.5320587158203 39.999370574951165 L 213.41000366210938 39.999500274658196 L 213.20399475097656 39.97750091552734 L 213.08399963378906 39.96950149536132 L 212.99200439453125 39.95351791381835 L 212.96600341796875 39.94900131225585 L 212.8094940185547 39.90250015258788 L 212.7154998779297 39.8740005493164 L 212.52850341796875 39.785999298095696 L 212.37632751464844 39.710891723632805 L 212.37249755859375 39.708999633789055 L 212.2655029296875 39.633499145507805 L 212.15037536621094 39.55311203002929 L 212.14950561523438 39.55250167846679 L 212.06149291992188 39.47150039672851 L 211.95750427246094 39.37599945068359 L 211.87350463867188 39.2750015258789 L 211.79649353027344 39.182998657226555 L 211.7949981689453 39.18060684204101 L 211.7270050048828 39.072498321533196 L 211.656005859375 38.963001251220696 L 211.65020751953125 38.9504051208496 L 211.63253784179688 38.91199874877929 L 211.60150146484375 38.84450149536132 L 211.53399658203125 38.695999145507805 L 211.5054931640625 38.60200119018554 L 211.46299743652344 38.46699905395507 L 211.4608917236328 38.45487976074218 L 211.4219970703125 38.230998992919915 L 211.4134979248047 38.111499786376946 L 211.40699768066406 38.00300979614257 L 211.40699768066406 38.002998352050774 L 211.40689086914062 37.88800048828124 L 211.40589904785156 36.86399841308593 L 211.4019317626953 32.76800155639648 L 211.3939971923828 24.563499450683587 L 211.3867950439453 17.11000061035156 L 211.3867950439453 17.108539581298825 L 211.38677978515625 17.103643417358395 L 211.38609313964844 16.38400077819824 L 211.38099670410156 11.124500274658201 L 212.99200439453125 11.12307548522949 L 216.38099670410156 11.120078086853026 L 216.38099670410156 16.38400077819824 L 216.38099670410156 17.10600090026855 L 221.1840057373047 17.10600090026855 L 225.27999877929688 17.10600090026855 L 226.38099670410156 17.10600090026855 L 226.38099670410156 16.38400077819824 L 226.38099670410156 11.111232757568358 L 229.37600708007812 11.108584403991697 L 231.38270568847656 11.106809616088865 M 184.39700317382812 24.96699905395507 L 184.32000732421875 24.93504905700683 L 183.9149932861328 24.76700019836425 L 183.39700317382812 24.69899940490722 L 182.8800048828125 24.76700019836425 L 182.39700317382812 24.96699905395507 L 181.98300170898438 25.28400039672851 L 181.6649932861328 25.697999954223626 L 181.56500244140625 25.938999176025384 L 181.46510314941406 26.180267333984368 L 181.46499633789062 26.18050003051757 L 181.43099975585938 26.439500808715813 L 181.39700317382812 26.697999954223626 L 181.46499633789062 27.215000152587884 L 181.6649932861328 27.697000503540032 L 181.98300170898438 28.11100006103515 L 182.39700317382812 28.42900085449218 L 182.8800048828125 28.628999710083 L 183.20692443847656 28.67200088500976 L 183.39700317382812 28.697000503540032 L 183.5874481201172 28.67200088500976 L 183.9149932861328 28.628999710083 L 184.32000732421875 28.460950851440423 L 184.39700317382812 28.42900085449218 L 184.81100463867188 28.11100006103515 L 185.12899780273438 27.697000503540032 L 185.32899475097656 27.215000152587884 L 185.39700317382812 26.697999954223626 L 185.36300659179688 26.439500808715813 L 185.32899475097656 26.18050003051757 L 185.3289031982422 26.180267333984368 L 185.22900390625 25.938999176025384 L 185.12899780273438 25.697999954223626 L 184.81100463867188 25.28400039672851 L 184.39700317382812 24.96699905395507 M 162.0019989013672 54.241001129150376 L 162.00149536132812 51.937499999999986 L 162.00100708007812 49.73600006103514 L 157.00100708007812 49.73600006103514 L 157.00100708007812 55.73899841308592 L 162.00233459472656 55.74994659423827 L 162.0023651123047 55.74994659423827 L 162.0260009765625 55.749999999999986 L 162.0225067138672 55.318500518798814 L 162.010498046875 54.61500167846678 L 162.0020294189453 54.242031097412095 L 162.0019989013672 54.241001129150376 M 186.00100708007812 55.75500106811522 L 191 55.747001647949205 L 191 49.73600006103514 L 186.00100708007812 49.73600006103514 L 186.00100708007812 55.75500106811522 z" fill="none" stroke="rgb(255,0,0)" stroke-width="0.001mm" />
</svg>