<?xml version="1.0" standalone="no"?>
<!DOCTYPE svg PUBLIC "-//W3C//DTD SVG 1.1//EN"
  "http://www.w3.org/Graphics/SVG/1.1/DTD/svg11.dtd">
<svg width="26.65999984741211mm" height="31.878000259399407mm" viewBox="-13.329999923706055 -15.939000129699703 26.65999984741211 31.878000259399407" xmlns="http://www.w3.org/2000/svg" version="1.1">
	<title>svgOutput</title>
	<desc>made with tinkercad</desc>
<path d="M -12.329999923706055 -14.939000129699703 L 0 -14.939000129699703 L 12.329999923706055 -14.939000129699703 L 12.329999923706055 1.1102230246251565e-16 L 12.329999923706055 9.250536918640135 L 12.329999923706055 14.939000129699703 L 0 14.939000129699703 L -0.6417529582977295 14.939000129699703 L -4.153684616088867 14.939000129699703 L -12.329999923706055 14.939000129699703 L -12.329999923706055 1.1102230246251565e-16 L -12.329999923706055 -0.36504223942756636 L -12.329999923706055 -3.6395573616027823 L -12.329999923706055 -14.939000129699703 M 1.1990000009536743 -3.9140000343322745 L 0 -3.8896777629852286 L -0.13199999928474426 -3.887000083923339 L -1.409999966621399 -3.5179998874664298 L -2.549999952316284 -2.8289999961853023 L -3.4719998836517334 -1.8689999580383296 L -4.114999771118164 -0.7030000090599058 L -4.288573741912842 1.1102230246251565e-16 L -4.434000015258789 0.5889999866485596 L -4.4079999923706055 1.9199999570846553 L -4.038000106811523 3.198999881744384 L -3.3489999771118164 4.339000225067138 L -2.390000104904175 5.261000156402587 L -1.2239999771118164 5.903999805450439 L -2.9195065757840234e-15 6.206210613250731 L 0.06800000369548798 6.223000049591063 L 1.3990000486373901 6.197000026702879 L 2.677999973297119 5.827000141143798 L 3.816999912261963 5.138999938964843 L 4.739999771118164 4.17899990081787 L 5.381999969482422 3.013000011444091 L 5.701000213623047 1.720000028610229 L 5.675000190734863 0.3889999985694885 L 5.562466621398926 1.1102230246251565e-16 L 5.304999828338623 -0.8899999856948849 L 4.617000102996826 -2.029000043869018 L 3.6570000648498535 -2.9519999027252193 L 2.492000102996826 -3.5950000286102286 L 1.1990000009536743 -3.9140000343322745 z" fill="none" stroke="rgb(255,0,0)" stroke-width="0.001mm" />
</svg>